<?xml version="1.0" encoding="utf-8"?>
<svg version="1.0" width="1280.000000pt" height="840.000000pt" viewBox="0 0 1280.000000 840.000000" preserveAspectRatio="xMidYMid meet" xmlns="http://www.w3.org/2000/svg">
  <g transform="translate(0.000000,840.000000) scale(0.100000,-0.100000)" fill="red" stroke="none">
    <path d="M10811 8390 l-454 -5 -390 -685 c-214 -377 -391 -692 -394 -701 -3 -9 9 -38 26 -65 l30 -49 -112 -6 c-62 -4 -425 -7 -807 -7 l-695 -1 -405 691 -404 691 -806 -6 c-442 -4 -806 -10 -808 -14 -1 -5 -179 -318 -395 -698 l-392 -690 -804 -7 c-442 -4 -804 -8 -806 -10 -2 -2 -181 -316 -398 -698 l-394 -695 -724 -6 c-398 -3 -761 -7 -805 -8 l-82 -1 -392 -692 c-217 -381 -393 -697 -393 -703 0 -7 181 -322 403 -700 l404 -688 806 7 805 7 371 -633 371 -633 807 0 807 0 407 -693 407 -693 800 6 c440 4 803 10 807 14 4 3 183 317 399 696 215 380 392 691 393 691 0 1 363 5 806 9 l805 8 394 694 c216 381 396 695 400 697 3 2 367 7 807 11 l801 8 397 698 396 698 -406 691 c-223 380 -404 697 -401 703 2 7 181 322 396 701 l391 689 -406 694 -407 693 -351 -2 c-193 -2 -555 -5 -805 -8z"/>
  </g>
  <polyline style="stroke: rgb(0, 0, 0); fill: rgb(255, 172, 172);" points="91.896 548.947 31.055 434.285 96.576 324.303 225.277 324.303"/>
  <polyline style="stroke: rgb(0, 0, 0); fill: rgb(255, 172, 172);" points="151.907 547.947 91.066 433.285 156.587 323.303 285.289 323.303" transform="matrix(-1, 0, 0, -1, 376.354996, 871.250031)"/>
  <polyline style="stroke: rgb(0, 0, 0); fill: rgb(255, 172, 172);" points="331.457 409.202 270.616 294.54 336.137 184.558 464.838 184.558"/>
  <polyline style="stroke: rgb(0, 0, 0); fill: rgb(255, 172, 172);" points="391.468 408.202 330.627 293.54 396.148 183.558 524.85 183.558" transform="matrix(-1, 0, 0, -1, 855.47699, 591.759995)"/>
  <polyline style="stroke: rgb(0, 0, 0); fill: rgb(255, 172, 172);" points="574.09 267.923 513.249 153.26 578.77 43.279 707.471 43.279"/>
  <polyline style="stroke: rgb(0, 0, 0); fill: rgb(255, 172, 172);" points="634.101 266.923 573.26 152.261 638.781 42.279 767.483 42.279" transform="matrix(-1, 0, 0, -1, 1340.742981, 309.202011)"/>
  <polyline style="stroke: rgb(0, 0, 0); fill: rgb(255, 172, 172);" points="1050.141 258.709 989.3 144.047 1054.821 34.065 1183.522 34.065"/>
  <polyline style="stroke: rgb(0, 0, 0); fill: rgb(255, 172, 172);" points="1110.152 257.709 1049.311 143.047 1114.832 33.065 1243.534 33.065" transform="matrix(-1, 0, 0, -1, 2292.845093, 290.77401)"/>
  <polyline style="stroke: rgb(0, 0, 0); fill: rgb(255, 172, 172);" points="812.115 404.595 751.274 289.933 816.795 179.951 945.496 179.951"/>
  <polyline style="stroke: rgb(0, 0, 0); fill: rgb(255, 172, 172);" points="872.126 403.595 811.285 288.933 876.806 178.951 1005.508 178.951" transform="matrix(-1, 0, 0, -1, 1816.792969, 582.546005)"/>
  <polyline style="stroke: rgb(0, 0, 0); fill: rgb(255, 172, 172);" points="566.411 535.125 505.57 420.463 571.091 310.481 699.792 310.481"/>
  <polyline style="stroke: rgb(0, 0, 0); fill: rgb(255, 172, 172);" points="626.422 534.126 565.581 419.464 631.102 309.482 759.804 309.482" transform="matrix(-1, 0, 0, -1, 1325.38501, 843.607971)"/>
  <polyline style="stroke: rgb(0, 0, 0); fill: rgb(255, 172, 172);" points="328.386 677.941 267.545 563.279 333.066 453.297 461.767 453.297"/>
  <polyline style="stroke: rgb(0, 0, 0); fill: rgb(255, 172, 172);" points="388.397 676.941 327.556 562.279 393.077 452.297 521.779 452.297" transform="matrix(-1, 0, 0, -1, 849.334991, 1129.237976)"/>
  <polyline style="stroke: rgb(0, 0, 0); fill: rgb(255, 172, 172);" points="566.411 816.149 505.57 701.487 571.091 591.505 699.792 591.505"/>
  <polyline style="stroke: rgb(0, 0, 0); fill: rgb(255, 172, 172);" points="626.422 815.149 565.581 700.487 631.102 590.505 759.804 590.505" transform="matrix(-1, 0, 0, -1, 1325.38501, 1405.653992)"/>
  <polyline style="stroke: rgb(0, 0, 0); fill: rgb(255, 172, 172);" points="802.901 673.334 742.06 558.672 807.581 448.69 936.282 448.69"/>
  <polyline style="stroke: rgb(0, 0, 0); fill: rgb(255, 172, 172);" points="862.912 672.334 802.071 557.672 867.592 447.69 996.294 447.69" transform="matrix(-1, 0, 0, -1, 1798.36499, 1120.023987)"/>
  <polyline style="stroke: rgb(0, 0, 0); fill: rgb(255, 172, 172);" points="1043.998 530.518 983.157 415.856 1048.678 305.874 1177.379 305.874"/>
  <polyline style="stroke: rgb(0, 0, 0); fill: rgb(255, 172, 172);" points="1104.009 529.519 1043.168 414.857 1108.689 304.875 1237.391 304.875" transform="matrix(-1, 0, 0, -1, 2280.55896, 834.393982)"/>
</svg>