<?xml version="1.0" encoding="utf-8"?>
<svg version="1.0" width="1280.000000pt" height="1025.000000pt" viewBox="0 0 1280.000000 1025.000000" preserveAspectRatio="xMidYMid meet" xmlns="http://www.w3.org/2000/svg">
  <defs>
    <radialGradient gradientUnits="userSpaceOnUse" cx="6400.444" cy="5124.773" r="6398.901" id="gradient-1" gradientTransform="matrix(1.896092, -0.01757, 0.009266, 0.999957, -5782.874668, 112.678593)">
      <stop offset="0" style="stop-color: rgba(255, 255, 255, 1)"/>
      <stop offset="1" style="stop-color: rgba(204, 204, 204, 1)"/>
    </radialGradient>
  </defs>
  <g transform="translate(0.000000,1025.000000) scale(0.100000,-0.100000)" fill="blue" stroke="none">
    <path d="M6155 10239 c-954 -67 -1843 -380 -2615 -923 -471 -331 -915 -774 -1240 -1236 -40 -58 -75 -107 -76 -109 -2 -2 -61 13 -131 32 -165 47 -308 80 -458 107 -94 17 -139 31 -210 65 -191 94 -355 119 -785 119 -291 1 -308 0 -371 -22 -109 -37 -190 -99 -246 -186 -25 -39 -26 -42 -14 -131 34 -277 180 -565 411 -810 91 -96 177 -198 333 -392 216 -270 339 -389 510 -497 47 -29 110 -63 141 -76 31 -12 56 -28 56 -36 0 -7 -11 -77 -25 -156 -230 -1339 80 -2704 869 -3823 373 -530 894 -1024 1446 -1372 339 -214 761 -414 1120 -531 830 -272 1695 -332 2545 -176 1027 187 1960 678 2700 1419 724 726 1206 1629 1404 2632 110 554 125 1191 40 1743 -37 240 -38 214 12 234 69 28 185 103 251 165 34 31 108 118 165 194 58 76 139 178 182 225 130 148 209 252 280 372 17 30 54 75 82 100 39 36 55 61 78 120 15 41 58 124 95 185 115 189 123 275 40 442 -25 51 -54 103 -64 116 -25 32 -110 71 -213 100 -74 20 -104 22 -297 21 -360 -1 -664 -60 -1150 -224 l-201 -67 -13 26 c-8 14 -53 82 -101 151 -839 1199 -2110 1976 -3545 2165 -306 41 -713 54 -1005 34z" style="fill: url(#gradient-1);"/>
    <polygon style="stroke: rgb(0, 0, 0); fill: rgb(255, 66, 66);" points="4909.804 1611.29 4389.284 3714.214 5805.099 2964.657 6596.29 3797.498 7449.942 2985.478 8907.395 3855.792 8295.268 1594.635 6617.11 2302.552"/>
  </g>
  <ellipse style="" cx="488.898" cy="353.341" rx="81.201" ry="168.651"/>
  <ellipse style="" cx="838.688" cy="354.504" rx="81.201" ry="168.651"/>
</svg>