<?xml version="1.0" encoding="utf-8"?>
<svg viewBox="985.709 83.133 294.141 653.367" width="294.141" height="653.367" xmlns="http://www.w3.org/2000/svg">
  <path d="M10672 6534 c-61 -31 -97 -106 -85 -177 7 -47 54 -104 100 -124 l33 -13 0 -292 c0 -245 -2 -290 -13 -278 -8 8 -72 87 -142 175 -143 178 -330 398 -416 490 l-58 60 -34 -75 c-85 -186 -150 -397 -183 -595 -20 -121 -23 -384 -5 -502 56 -380 263 -763 561 -1038 160 -148 337 -245 555 -303 93 -25 114 -27 310 -27 184 0 223 3 314 23 286 64 516 195 727 415 252 261 410 607 455 997 23 202 -9 577 -67 777 -41 143 -140 353 -167 353 -22 0 -112 -74 -212 -175 -112 -111 -291 -328 -420 -507 -39 -53 -73 -97 -77 -97 -5 -1 -8 133 -8 297 l0 299 41 19 c154 69 113 298 -55 312 -90 7 -157 -41 -177 -127 -16 -71 30 -159 98 -187 l33 -14 -1 -298 c0 -265 -2 -294 -15 -267 -7 17 -55 127 -105 245 -50 118 -120 271 -155 340 -63 122 -158 264 -174 258 -19 -7 -140 -163 -212 -273 -74 -112 -231 -412 -290 -552 -15 -35 -31 -63 -37 -63 -8 0 -11 94 -11 304 l0 304 45 22 c109 53 125 204 28 277 -45 34 -131 42 -181 17z m721 -1274 c62 -49 117 -240 117 -410 0 -113 -21 -260 -55 -389 -26 -96 -114 -331 -125 -331 -3 0 -11 15 -19 33 -123 307 -169 517 -158 727 9 174 51 308 114 366 33 31 90 32 126 4z m-829 -410 c200 -75 412 -301 558 -595 53 -105 101 -225 95 -232 -9 -8 -247 104 -343 162 -266 159 -473 397 -490 565 -6 52 10 89 46 107 35 18 71 16 134 -7z m1664 9 c86 -30 74 -153 -31 -309 -106 -157 -281 -303 -501 -417 -89 -46 -248 -115 -253 -109 -4 4 62 156 110 251 148 295 400 546 592 588 35 8 51 7 83 -4z" style="fill: rgb(223, 245, 251);" transform="matrix(0.1, 0, 0, -0.1, 0, 738)"/>
  <path d="M11287 3694 c-4 -4 -7 -241 -7 -527 0 -286 -3 -517 -6 -514 -4 4 -26 51 -49 105 -157 371 -353 588 -571 633 -55 11 -67 11 -109 -5 -114 -44 -113 -168 3 -359 147 -244 363 -397 668 -473 l64 -16 0 -591 c0 -341 -4 -587 -9 -581 -5 5 -28 54 -51 109 -109 260 -269 531 -404 688 -216 251 -541 386 -713 298 -62 -31 -87 -73 -91 -152 -6 -105 39 -220 156 -395 217 -323 558 -540 1014 -644 l98 -22 2 -617 3 -616 30 0 30 0 3 616 2 617 98 22 c372 85 661 241 876 471 123 132 237 314 281 447 24 75 18 176 -14 220 -98 139 -386 91 -629 -104 -195 -156 -388 -447 -553 -831 -28 -65 -52 -119 -55 -122 -2 -2 -4 262 -4 587 l0 591 43 11 c147 37 306 105 407 173 66 45 186 163 235 232 47 66 106 178 125 239 7 21 10 61 7 89 -8 90 -84 132 -197 109 -211 -44 -412 -269 -565 -632 -15 -36 -32 -76 -39 -90 -8 -19 -12 99 -16 505 l-5 530 -25 3 c-14 2 -29 0 -33 -4z" style="fill: rgb(126, 217, 108);" transform="matrix(0.1, 0, 0, -0.1, 0, 738)"/>
</svg>