<?xml version="1.0" encoding="utf-8"?>
<svg viewBox="0.137 0.386 352.976 737.511" width="352.976" height="737.511" xmlns="http://www.w3.org/2000/svg">
  <path d="M1384 7362 c-62 -22 -100 -52 -148 -116 -55 -74 -78 -163 -79 -304 -1 -110 1 -123 36 -226 42 -123 160 -363 262 -536 58 -98 221 -359 230 -368 1 -1 15 3 30 10 l28 12 -6 118 c-4 100 -3 119 11 132 12 10 22 12 35 5 15 -9 17 -27 17 -139 l0 -130 25 0 c20 0 34 14 72 73 213 329 362 620 429 837 35 117 46 190 43 286 -4 78 -9 99 -40 164 -40 84 -95 146 -154 175 -57 29 -156 27 -214 -4 -52 -27 -128 -96 -166 -151 -15 -22 -30 -40 -34 -40 -3 0 -19 23 -36 51 -79 134 -217 195 -341 151z m454 -1006 c32 -30 37 -40 37 -79 0 -120 -146 -166 -212 -68 -27 40 -29 71 -7 117 20 42 56 63 107 64 29 0 46 -8 75 -34z" style="fill: rgb(170, 137, 224);" transform="matrix(0.1, 0, 0, -0.1, 0, 738)"/>
  <path d="M475 6653 c-108 -12 -200 -61 -249 -131 -25 -35 -31 -55 -34 -110 -5 -81 19 -152 83 -247 l42 -63 -35 -7 c-69 -13 -141 -46 -186 -87 -125 -109 -126 -270 -4 -403 58 -64 105 -94 215 -137 69 -27 93 -32 205 -36 205 -7 429 26 831 124 l227 56 0 32 c0 31 -1 32 -87 55 -127 34 -153 46 -153 71 0 35 29 35 148 -4 93 -31 116 -36 123 -25 16 25 10 37 -63 126 -293 359 -565 612 -773 720 -125 64 -187 79 -290 66z m723 -718 c46 -19 72 -59 72 -112 0 -91 -98 -142 -178 -93 -79 48 -66 167 22 206 39 17 38 17 84 -1z" style="fill: rgb(170, 137, 224);" transform="matrix(0.1, 0, 0, -0.1, 0, 738)"/>
  <path d="M2945 6650 c-70 -11 -162 -38 -217 -66 -155 -78 -392 -306 -695 -667 -105 -126 -122 -150 -113 -167 5 -10 15 -22 20 -25 6 -3 59 12 120 34 107 39 133 43 143 17 10 -26 -15 -42 -125 -76 -96 -30 -113 -39 -116 -58 -4 -27 7 -32 158 -71 422 -109 808 -154 1017 -117 136 24 191 48 266 117 113 103 154 224 112 327 -33 79 -140 160 -255 193 -25 7 -47 14 -49 15 -2 2 15 24 37 49 60 68 85 128 90 212 3 59 0 80 -17 117 -59 120 -216 190 -376 166z m-512 -712 c24 -13 57 -68 57 -96 0 -37 -28 -86 -59 -105 -47 -28 -96 -22 -137 16 -106 97 10 251 139 185z" style="fill: rgb(170, 137, 224);" transform="matrix(0.1, 0, 0, -0.1, 0, 738)"/>
  <path d="M1915 5514 c-16 -24 -15 -26 53 -112 37 -48 71 -92 75 -99 12 -19 -4 -43 -27 -43 -17 0 -41 25 -95 100 -66 91 -74 99 -93 89 -20 -11 -21 -17 -15 -145 12 -248 53 -549 98 -727 75 -298 175 -460 331 -536 232 -114 418 16 418 292 0 71 2 78 18 72 132 -56 194 -65 278 -40 76 22 143 88 169 165 26 77 18 196 -19 275 -79 172 -178 268 -421 402 -151 84 -453 219 -692 309 l-61 23 -17 -25z m285 -289 c40 -21 60 -53 60 -98 0 -74 -45 -121 -115 -121 -67 0 -115 49 -115 118 0 88 91 142 170 101z" style="fill: rgb(170, 137, 224);" transform="matrix(0.1, 0, 0, -0.1, 0, 738)"/>
  <path d="M1380 5454 c-384 -155 -680 -323 -830 -473 -122 -121 -160 -204 -160 -357 0 -67 4 -89 26 -133 31 -61 81 -102 149 -121 58 -16 173 -9 246 17 l56 19 0 -91 c0 -116 25 -186 88 -244 137 -126 353 -76 507 118 96 121 143 246 187 501 35 199 85 739 70 754 -2 2 -15 7 -29 11 -23 5 -31 -4 -93 -95 -68 -100 -99 -123 -114 -83 -7 19 2 36 81 143 48 66 56 83 46 95 -7 8 -20 15 -29 15 -9 -1 -99 -34 -201 -76z m78 -240 c70 -49 66 -161 -8 -199 -70 -36 -148 -2 -171 74 -22 74 32 140 116 141 22 0 51 -7 63 -16z" style="fill: rgb(170, 137, 224);" transform="matrix(0.1, 0, 0, -0.1, 0, 738)"/>
  <path d="M1720 4011 c-7 -13 -10 -302 -10 -867 l0 -847 -84 169 c-126 253 -241 413 -388 541 -242 210 -546 275 -689 146 -77 -69 -107 -169 -89 -296 48 -336 445 -541 1168 -602 l82 -7 0 -567 0 -566 -82 166 c-110 218 -199 350 -323 475 -112 113 -223 190 -335 233 -271 105 -474 30 -509 -186 -22 -136 25 -278 126 -385 90 -93 191 -155 359 -216 157 -58 449 -115 662 -128 l102 -7 0 -517 c0 -488 1 -518 18 -533 25 -23 48 -21 66 5 14 20 16 88 16 544 l0 521 103 7 c233 15 515 71 695 139 209 78 352 191 419 333 37 77 38 82 38 189 0 103 -2 113 -29 163 -66 118 -191 162 -361 127 -318 -66 -596 -345 -812 -814 l-53 -116 0 562 0 561 68 7 c434 42 708 109 901 222 80 47 194 152 228 210 87 150 84 349 -9 449 -162 176 -536 72 -811 -226 -98 -106 -195 -257 -293 -453 l-84 -170 0 857 c0 572 -3 864 -10 877 -7 12 -21 19 -40 19 -19 0 -33 -7 -40 -19z" style="fill: rgb(126, 217, 108);" transform="matrix(0.1, 0, 0, -0.1, 0, 738)"/>
</svg>