<?xml version="1.0" encoding="utf-8"?>
<svg viewBox="722.5 222.241 241.822 514.759" width="241.822" height="514.759" xmlns="http://www.w3.org/2000/svg">
  <path d="M8314 5142 c-134 -47 -221 -160 -232 -299 l-5 -64 -26 24 c-177 163 -447 113 -553 -102 -19 -39 -23 -62 -23 -146 0 -89 3 -105 27 -150 14 -27 40 -63 57 -80 17 -16 31 -33 31 -36 0 -3 -23 -6 -51 -8 -117 -5 -233 -82 -286 -189 -25 -50 -28 -68 -28 -152 0 -116 22 -168 101 -247 63 -61 138 -93 220 -93 l56 0 -36 -41 c-64 -75 -81 -122 -81 -229 0 -84 3 -102 28 -151 65 -134 221 -216 360 -190 71 13 135 43 182 86 21 19 38 35 39 35 0 0 2 -25 3 -56 5 -122 99 -248 216 -292 78 -29 176 -29 254 0 121 45 213 177 213 304 l0 56 46 -41 c70 -61 140 -84 244 -79 66 4 96 10 135 30 162 84 234 283 161 443 -15 33 -43 76 -62 96 l-35 36 62 7 c284 29 411 355 224 574 -49 56 -145 103 -228 109 l-64 5 30 32 c16 17 43 59 59 94 79 165 4 369 -167 452 -42 21 -65 25 -145 25 -106 0 -154 -17 -228 -80 l-39 -34 -6 54 c-12 120 -98 240 -205 287 -66 30 -181 34 -248 10z m308 -609 c94 -29 209 -103 273 -176 25 -29 64 -88 86 -132 121 -245 79 -514 -111 -706 -118 -119 -240 -175 -400 -186 -311 -19 -591 200 -646 507 -36 198 31 408 174 547 167 163 397 217 624 146z" style="fill: rgb(242, 238, 116);" transform="matrix(0.1, 0, 0, -0.1, 0, 738)"/>
  <path d="M8401 2617 c-8 -10 -12 -191 -13 -613 l-3 -599 -29 80 c-64 180 -171 371 -277 492 -195 224 -445 302 -510 159 -24 -53 -24 -89 1 -167 45 -145 174 -312 335 -432 90 -68 270 -159 399 -202 l86 -30 0 -510 0 -510 -49 120 c-61 151 -90 209 -158 315 -104 160 -224 275 -353 336 -65 31 -156 42 -200 24 -150 -62 -66 -349 167 -571 128 -121 295 -218 500 -289 l92 -32 3 -81 c2 -63 7 -82 21 -91 12 -8 22 -8 35 0 13 9 18 28 20 91 l3 81 92 32 c212 73 369 164 501 290 93 89 152 169 202 273 157 332 -134 420 -430 131 -124 -122 -252 -334 -335 -559 l-30 -80 0 515 -1 515 98 34 c234 81 444 212 559 349 147 174 214 355 165 452 -65 130 -282 70 -479 -132 -115 -120 -211 -280 -299 -502 l-43 -111 -1 606 c0 457 -3 608 -12 617 -16 16 -43 15 -57 -1z" style="fill: rgb(126, 217, 108);" transform="matrix(0.1, 0, 0, -0.1, 0, 738)"/>
</svg>