<?xml version="1.0" encoding="utf-8"?>
<svg viewBox="390.815 182.442 256.511 554.058" width="256.511" height="554.058" xmlns="http://www.w3.org/2000/svg">
  <path d="M3914 5430 c0 -69 -2 -224 -4 -345 -4 -203 -3 -227 18 -310 59 -233 145 -324 372 -389 139 -41 491 -96 608 -96 26 0 41 -4 37 -10 -3 -5 -27 -10 -53 -10 -26 0 -104 -7 -172 -15 -440 -54 -626 -137 -723 -323 -69 -132 -72 -154 -72 -567 l0 -370 290 -3 c386 -4 506 13 658 89 175 89 244 273 296 784 l17 170 12 -120 c54 -510 146 -729 345 -824 135 -64 145 -66 554 -66 l373 0 2 225 c4 325 -1 434 -23 535 -22 103 -71 214 -118 267 -97 111 -292 170 -695 213 -76 8 -140 16 -143 18 -2 2 43 7 99 11 264 18 505 73 624 142 62 36 141 126 174 196 55 119 63 164 67 403 2 121 4 284 6 363 l2 142 -108 0 c-60 0 -185 5 -278 11 -277 18 -480 -17 -615 -107 -129 -86 -199 -280 -253 -704 -11 -85 -22 -171 -23 -190 -2 -19 -7 8 -11 60 -53 637 -155 835 -476 922 -70 19 -104 21 -431 22 l-355 1 -1 -125z m820 -248 c52 -35 104 -132 155 -287 36 -110 81 -297 94 -387 5 -36 4 -38 -21 -38 -45 0 -226 47 -320 84 -303 117 -426 232 -367 346 29 55 116 63 241 20 31 -11 58 -20 60 -20 1 0 -7 27 -17 61 -37 119 -19 217 44 244 40 18 81 11 131 -23z m1087 -11 c25 -25 29 -37 29 -84 0 -47 -19 -128 -45 -189 -6 -15 0 -14 57 4 45 14 83 18 132 16 62 -3 71 -7 97 -36 60 -67 23 -163 -86 -227 -104 -62 -498 -175 -606 -175 -35 0 -35 5 -10 120 26 114 72 243 132 366 100 205 219 286 300 205z m-556 -762 c83 -51 93 -174 18 -239 -61 -54 -150 -52 -208 5 -79 80 -48 212 60 250 45 16 86 11 130 -16z m252 -330 c211 -46 451 -148 532 -227 73 -71 86 -145 34 -194 -22 -20 -34 -23 -101 -22 -52 1 -94 8 -130 22 -48 18 -53 19 -47 4 21 -55 37 -143 33 -189 -12 -136 -154 -155 -244 -34 -61 83 -156 351 -194 547 -11 58 -20 107 -20 110 0 9 43 3 137 -17z m-522 -51 c-11 -81 -52 -230 -90 -330 -102 -264 -211 -381 -316 -338 -70 29 -76 108 -22 284 5 16 3 18 -18 12 -112 -32 -145 -37 -187 -31 -63 9 -102 49 -102 105 0 110 83 171 362 264 130 44 293 83 351 85 l29 1 -7 -52z" style="fill: rgb(212, 88, 171);" transform="matrix(0.1, 0, 0, -0.1, 0, 738)"/>
  <path d="M5197 3014 c-4 -4 -7 -223 -7 -486 0 -263 -2 -478 -5 -478 -3 0 -40 20 -83 45 -223 129 -440 166 -596 104 -82 -33 -118 -79 -124 -159 -9 -117 65 -187 225 -212 128 -20 281 18 470 117 59 30 108 55 110 55 2 0 3 -159 3 -354 l0 -354 -137 69 c-160 81 -258 109 -379 109 -186 0 -294 -74 -294 -200 0 -128 108 -200 299 -200 129 0 277 45 425 130 38 22 73 40 77 40 5 0 10 -276 11 -612 l3 -613 30 0 30 0 3 618 c1 339 5 617 7 617 3 0 37 -18 76 -40 169 -96 308 -140 440 -140 192 0 299 72 299 200 0 59 -10 81 -53 128 -66 69 -243 92 -403 52 -45 -11 -137 -49 -214 -87 -74 -38 -138 -69 -142 -71 -5 -2 -8 159 -8 357 0 199 1 361 3 361 2 0 39 -20 83 -45 167 -96 302 -138 439 -139 95 -1 175 19 228 56 57 40 84 142 56 215 -28 74 -120 122 -254 130 -136 8 -298 -39 -465 -137 -41 -24 -77 -44 -80 -44 -3 -1 -7 217 -10 484 l-5 485 -25 3 c-14 2 -29 0 -33 -4z" style="fill: rgb(126, 217, 108);" transform="matrix(0.1, 0, 0, -0.1, 0, 738)"/>
</svg>