<?xml version="1.0" encoding="utf-8"?>
<svg version="1.0" width="1280.000000pt" height="1106.000000pt" viewBox="0 0 1280.000000 1106.000000" preserveAspectRatio="xMidYMid meet" xmlns="http://www.w3.org/2000/svg">
  <g transform="translate(0.000000,1106.000000) scale(0.100000,-0.100000)" fill="green" stroke="none">
    <path d="M6155 11049 c-1065 -110 -1892 -814 -2016 -1716 -7 -51 -16 -93 -19 -93 -3 0 -66 28 -140 61 -331 150 -878 353 -1165 433 -383 105 -680 165 -1000 202 -181 21 -567 23 -700 5 -389 -54 -657 -170 -843 -365 -87 -92 -123 -145 -177 -259 -68 -145 -89 -244 -90 -422 0 -161 9 -228 56 -392 166 -589 751 -1313 1621 -2006 313 -250 736 -542 1094 -757 l192 -115 -237 -121 c-1290 -661 -1944 -1360 -1801 -1927 109 -434 645 -721 1545 -828 347 -41 976 -52 1375 -24 113 7 248 17 300 20 l95 7 67 -133 c276 -550 661 -978 1119 -1246 29 -17 37 -28 43 -62 3 -23 13 -44 21 -47 7 -3 182 -289 386 -635 l373 -629 46 0 46 0 485 613 c266 336 508 635 537 663 43 43 52 57 52 87 0 33 5 38 73 81 401 250 785 694 1020 1179 l62 128 77 -6 c413 -29 544 -35 863 -35 482 0 750 21 1118 87 712 127 1141 397 1237 780 42 168 16 342 -81 537 -226 449 -818 928 -1720 1390 l-237 121 192 115 c894 537 1693 1203 2195 1830 249 310 443 658 520 933 47 164 56 231 56 392 -1 178 -22 277 -90 422 -54 114 -90 167 -177 259 -186 195 -454 311 -843 365 -133 18 -519 16 -700 -5 -320 -37 -617 -97 -1000 -202 -287 -80 -834 -283 -1165 -433 -74 -33 -137 -61 -141 -61 -3 0 -9 28 -13 63 -27 259 -135 545 -295 783 -343 511 -910 849 -1595 950 -123 18 -498 26 -621 13z m-1104 -1211 c223 -66 334 -560 204 -905 -30 -79 -87 -166 -130 -199 l-33 -25 -84 54 c-45 30 -125 78 -176 106 -102 58 -109 67 -138 176 -26 99 -26 341 0 440 49 186 147 323 252 355 41 12 61 12 105 -2z m2840 -14 c84 -43 176 -187 214 -334 22 -87 31 -279 16 -366 -7 -38 -21 -98 -32 -134 l-20 -65 -91 -50 c-50 -28 -131 -76 -181 -108 l-89 -58 -33 25 c-43 33 -100 120 -130 199 -82 218 -70 528 27 727 37 76 118 161 168 177 43 15 110 9 151 -13z m-5368 -840 c487 -53 1028 -213 1569 -464 l157 -72 54 -112 c96 -194 224 -372 382 -530 l87 -87 -44 -52 c-335 -397 -618 -978 -778 -1594 -10 -38 -14 -43 -61 -58 -28 -10 -104 -39 -170 -65 l-119 -49 -238 141 c-523 309 -844 521 -1167 772 -584 451 -952 879 -1070 1246 -33 102 -45 269 -25 359 41 193 212 378 436 471 96 40 239 77 364 94 135 19 452 19 623 0z m8363 1 c305 -40 519 -134 665 -293 73 -79 130 -183 149 -273 20 -90 8 -257 -25 -359 -118 -367 -486 -795 -1070 -1246 -323 -250 -644 -463 -1167 -772 l-237 -140 -148 59 c-81 32 -154 59 -161 59 -16 0 -23 18 -60 165 -139 542 -425 1117 -734 1476 l-56 66 60 59 c91 90 205 228 274 334 57 88 140 240 162 301 8 20 41 40 168 98 535 248 1080 410 1559 465 165 19 484 20 621 1z m-4266 -1489 c305 -54 616 -241 874 -526 73 -81 198 -242 192 -248 -2 -2 -33 11 -67 29 -206 104 -497 195 -759 238 -556 92 -1181 4 -1674 -235 -38 -19 -71 -33 -72 -31 -8 8 143 195 236 291 297 307 571 452 950 500 58 7 230 -3 320 -18z m231 -1535 c367 -56 671 -153 975 -310 118 -61 300 -171 367 -222 17 -13 52 -285 67 -522 7 -98 10 -180 9 -181 -2 -2 -58 35 -124 81 -544 385 -1118 573 -1746 573 -381 0 -727 -65 -1065 -200 -249 -99 -527 -257 -737 -418 -32 -24 -61 -42 -64 -39 -7 8 16 342 33 472 8 61 18 132 21 158 7 54 18 66 168 162 357 230 800 390 1245 449 176 24 187 24 460 21 194 -3 287 -9 391 -24z m-3001 -411 c-110 -780 -33 -1624 214 -2347 l35 -103 -237 0 c-716 1 -1327 132 -1664 357 -81 54 -179 149 -225 219 -105 158 -112 368 -18 571 164 355 592 733 1251 1104 93 52 138 72 160 70 30 -1 39 3 162 92 31 22 333 168 338 163 1 0 -7 -57 -16 -126z m5241 56 c78 -36 159 -77 180 -93 123 -87 132 -93 165 -93 24 0 73 -22 161 -71 652 -366 1084 -747 1248 -1102 47 -102 65 -181 65 -285 0 -322 -276 -568 -807 -722 -309 -89 -784 -145 -1179 -138 l-202 3 29 90 c79 241 150 544 189 808 43 289 53 449 54 822 1 353 -6 480 -40 728 -16 123 -16 117 -9 117 3 0 68 -29 146 -64z m-2282 -1431 c451 -53 839 -163 1229 -350 109 -53 133 -68 128 -82 -2 -10 -19 -72 -36 -138 -34 -128 -105 -344 -118 -357 -4 -4 -42 10 -84 32 -185 97 -514 220 -723 270 -266 63 -462 87 -829 100 -309 10 -396 6 -586 -31 -313 -61 -670 -190 -927 -337 -65 -36 -74 -39 -82 -24 -24 47 -151 471 -151 506 0 8 115 65 250 124 393 170 876 283 1315 306 128 7 486 -5 614 -19z m21 -1619 c270 -36 680 -129 680 -155 0 -5 -54 -61 -120 -124 -227 -219 -470 -353 -750 -413 -118 -25 -362 -25 -480 0 -224 48 -446 155 -625 299 -58 47 -255 239 -255 248 0 7 185 57 329 89 119 26 336 59 466 70 148 13 620 4 755 -14z" style="fill: rgb(140, 255, 140);"/>
  </g>
  <g transform="matrix(0.1, 0, 0, -0.1, -1.111538, 1106.759521)" fill="green" stroke="none">
    <path d="M 6155 11049 C 5090 10939 4263 10235 4139 9333 C 4132 9282 4022.587 3257.484 4022.587 3257.484 L 4312 2619 C 4588 2069 4973 1641 5431 1373 C 5460 1356 5468 1345 5474 1311 C 5477 1288 5487 1267 5495 1264 C 5502 1261 5677 975 5881 629 L 6254 0 L 6300 0 L 6346 0 L 6831 613 C 7097 949 7339 1248 7368 1276 C 7411 1319 7420 1333 7420 1363 C 7420 1396 7425 1401 7493 1444 C 7894 1694 8278 2138 8513 2623 L 8591.342 8507.522 C 8796.516 8478.522 8628.78 9272.515 8666 9303 C 8844.672 9449.342 8542.917 9694.826 8371 10086 C 8140.543 10610.375 7461 10933.21 6776 11036 C 6653.066 11054.447 6278 11062 6155 11049 Z M 5051 9838 C 5274 9772 5385 9278 5255 8933 C 5225 8854 5168 8767 5125 8734 L 5092 8709 L 5008 8763 C 4963 8793 4883 8841 4832 8869 C 4730 8927 4723 8936 4694 9045 C 4668 9144 4668 9386 4694 9485 C 4743 9671 4841 9808 4946 9840 C 4987 9852 5007 9852 5051 9838 Z M 7891 9824 C 7975 9781 8067 9637 8105 9490 C 8127 9403 8136 9211 8121 9124 C 8114 9086 8100 9026 8089 8990 L 8069 8925 L 7978 8875 C 7928 8847 7847 8799 7797 8767 L 7708 8709 L 7675 8734 C 7632 8767 7575 8854 7545 8933 C 7463 9151 7475 9461 7572 9660 C 7609 9736 7690 9821 7740 9837 C 7783 9852 7850 9846 7891 9824 Z M 4728 7667 C 4393 7270 4249 8468.219 4249 8468.219 L 4303 8336 C 4399 8142 4527 7964 4685 7806 L 4772 7719 L 4728 7667 Z M 8376 8120 C 8433 8208 8407 7302 8098 7661 L 8042 7727 L 8102 7786 C 8193 7876 8307 8014 8376 8120 Z M 6620 7496 C 6925 7442 7236 7255 7494 6970 C 7567 6889 7692 6728 7686 6722 C 7684 6720 7653 6733 7619 6751 C 7413 6855 7122 6946 6860 6989 C 6304 7081 5679 6993 5186 6754 C 5148 6735 5115 6721 5114 6723 C 5106 6731 5257 6918 5350 7014 C 5647 7321 5921 7466 6300 7514 C 6358 7521 6530 7511 6620 7496 Z M 6851 5961 C 7218 5905 7522 5808 7826 5651 C 7944 5590 8126 5480 8193 5429 C 8210 5416 8245 5144 8260 4907 C 8267 4809 8270 4727 8269 4726 C 8267 4724 8211 4761 8145 4807 C 7601 5192 7027 5380 6399 5380 C 6018 5380 5672 5315 5334 5180 C 5085 5081 4807 4923 4597 4762 C 4565 4738 4536 4720 4533 4723 C 4526 4731 4549 5065 4566 5195 C 4574 5256 4584 5327 4587 5353 C 4594 5407 4605 5419 4755 5515 C 5112 5745 5555 5905 6000 5964 C 6176 5988 6187 5988 6460 5985 C 6654 5982 6747 5976 6851 5961 Z M 3850 5550 C 3830.419 4762.525 3817 3926 4064 3203 C 4064 3203 4548.459 6914.383 4229.949 6767.847 C 4189 6893.693 3852.221 5639.336 3850 5550 Z M 8540.612 6984.259 C 8540.539 6981.26 8398.49 2700.612 8398.49 2700.612 L 8548.806 2649.077 C 8769.342 2890.077 9002.097 3658.122 9041.097 3922.122 C 9084.097 4211.122 8916.188 4460.205 8994 4825 C 9069.296 5178 8936.312 5325.734 8954 5553 C 8976.07 5836.561 8541.8 7032.886 8540.612 6984.259 Z M 6809 4175 C 7260 4122 7648 4012 8038 3825 C 8147 3772 8171 3757 8166 3743 C 8164 3733 8147 3671 8130 3605 C 8096 3477 8025 3261 8012 3248 C 8008 3244 7970 3258 7928 3280 C 7743 3377 7414 3500 7205 3550 C 6939 3613 6743 3637 6376 3650 C 6067 3660 5980 3656 5790 3619 C 5477 3558 5120 3429 4863 3282 C 4798 3246 4789 3243 4781 3258 C 4757 3305 4630 3729 4630 3764 C 4630 3772 4745 3829 4880 3888 C 5273 4058 5756 4171 6195 4194 C 6323 4201 6681 4189 6809 4175 Z M 6830 2556 C 7100 2520 7510 2427 7510 2401 C 7510 2396 7456 2340 7390 2277 C 7163 2058 6920 1924 6640 1864 C 6522 1839 6278 1839 6160 1864 C 5936 1912 5714 2019 5535 2163 C 5477 2210 5280 2402 5280 2411 C 5280 2418 5465 2468 5609 2500 C 5728 2526 5945 2559 6075 2570 C 6223 2583 6695 2574 6830 2556 Z" style="fill: rgb(255, 114, 114);"/>
  </g>
</svg>