<?xml version="1.0" encoding="utf-8"?>
<svg version="1.0" width="1216.000000pt" height="1280.000000pt" viewBox="0 0 1216.000000 1280.000000" preserveAspectRatio="xMidYMid meet" xmlns="http://www.w3.org/2000/svg" xmlns:bx="https://boxy-svg.com">
  <path d="M 524.4 63.5 L 484.7 127 L 409.7 127.2 L 334.6 127.5 L 294.9 191 L 255.2 254.5 L 179.9 255 L 104.6 255.5 L 65.7 317.5 C 44.4 351.6 26.4 380.4 25.9 381.6 C 25 383.3 30 393.3 59 447.6 C 77.9 482.7 93.6 511.6 94 511.8 C 94.5 512 77.1 540.5 55.4 575.1 C 33.7 609.8 16 638.6 16 639 C 16 639.5 31.1 668 49.6 702.5 C 68 737 83 765.3 82.8 765.4 C 82.6 765.4 81.7 765.9 80.8 766.5 C 79.3 767.3 1.9 889.8 0.3 893.7 C 0 894.4 15.2 923.8 34 959 L 68.2 1023 L 141.9 1023 L 215.6 1023 L 249.7 1086.7 L 283.9 1150.5 L 357.5 1151 L 431.1 1151.5 L 465.4 1215.5 L 499.6 1279.5 L 574.5 1279.5 L 649.4 1279.5 L 689.4 1215.3 L 729.5 1151.1 L 803.5 1151 L 877.5 1150.9 L 916.9 1088 C 938.5 1053.3 956.6 1025 957.1 1025 C 957.6 1025 958 1025.4 958 1026 C 958 1026.7 983.6 1027 1032.9 1027 L 1107.7 1027 L 1147.6 963.3 C 1169.6 928.3 1187.6 899.3 1187.8 898.9 C 1188.1 898.1 1120.1 770.8 1119 770 C 1118.5 769.7 1136 741 1157.7 706.3 L 1197.2 643.1 L 1164 580.8 C 1145.7 546.5 1130.3 518.1 1129.9 517.5 C 1128.3 515.8 1129 515.1 1132.7 514.8 L 1136.4 514.5 L 1175.3 452.5 C 1196.6 418.4 1214.6 389.5 1215.2 388.3 C 1216.1 386.5 1211.7 377.7 1182 322.1 L 1147.7 258 L 1073.6 258 L 999.5 258 L 965 193.5 L 930.5 129 L 856.4 129 L 782.3 129 L 747.9 64.5 L 713.5 0.1 L 638.8 0 L 564.1 0 L 524.4 63.5 Z" style="fill: rgb(255, 255, 255);"/>
  <path d="M 530.066 99.301 L 492.852 158.591 L 422.546 158.78 L 352.147 159.059 L 314.932 218.349 L 277.716 277.639 L 207.13 278.106 L 136.543 278.573 L 100.078 336.463 C 80.112 368.303 63.238 395.193 62.769 396.312 C 61.925 397.9 66.612 407.237 93.796 457.937 C 111.514 490.71 126.231 517.693 126.607 517.881 C 127.075 518.068 110.763 544.678 90.423 576.984 C 70.081 609.384 53.489 636.275 53.489 636.648 C 53.489 637.115 67.644 663.725 84.985 695.939 C 102.234 728.151 116.295 754.573 116.108 754.669 C 115.92 754.669 115.076 755.135 114.233 755.695 C 112.827 756.442 40.271 870.822 38.772 874.462 C 38.49 875.115 52.739 902.567 70.362 935.434 L 102.421 995.19 L 171.507 995.19 L 240.594 995.19 L 272.561 1054.666 L 304.62 1114.236 L 373.613 1114.703 L 442.606 1115.171 L 474.759 1174.926 L 506.818 1234.685 L 577.031 1234.685 L 647.242 1234.685 L 684.738 1174.74 L 722.328 1114.797 L 791.697 1114.703 L 861.065 1114.61 L 897.998 1055.88 C 918.246 1023.481 935.213 997.057 935.682 997.057 C 936.151 997.057 936.526 997.431 936.526 997.989 C 936.526 998.644 960.523 998.925 1006.737 998.925 L 1076.855 998.925 L 1114.258 939.448 C 1134.882 906.768 1151.754 879.691 1151.941 879.318 C 1152.223 878.569 1088.479 759.71 1087.448 758.963 C 1086.979 758.684 1103.384 731.887 1123.726 699.486 L 1160.754 640.476 L 1129.632 582.305 C 1112.476 550.281 1098.041 523.764 1097.666 523.204 C 1096.167 521.615 1096.822 520.961 1100.291 520.683 L 1103.759 520.402 L 1140.224 462.513 C 1160.192 430.673 1177.064 403.69 1177.627 402.568 C 1178.472 400.887 1174.346 392.672 1146.505 340.758 L 1114.352 280.907 L 1044.889 280.907 L 975.428 280.907 L 943.088 220.684 L 910.747 160.46 L 841.286 160.46 L 771.823 160.46 L 739.577 100.237 L 707.33 40.106 L 637.306 40.013 L 567.281 40.013 L 530.066 99.301 Z" style="fill: rgb(255, 165, 0);"/>
  <path d="M 363.732 20.307 Q 375.429 13.441 387.126 20.307 L 470.067 68.997 Q 481.764 75.864 481.764 89.596 L 481.764 186.976 Q 481.764 200.709 470.067 207.575 L 387.126 256.265 Q 375.429 263.131 363.732 256.265 L 280.791 207.575 Q 269.094 200.709 269.094 186.976 L 269.094 89.596 Q 269.094 75.863 280.791 68.997 Z" style="fill: rgb(239, 234, 93);" transform="matrix(-0.869317, 0.494256, -0.494256, -0.869316, 1029.1833, 93.743271)" bx:shape="n-gon 375.429 138.286 122.785 124.845 6 0.11 1@c0c16bb8"/>
  <path d="M 363.732 20.307 Q 375.429 13.441 387.126 20.307 L 470.067 68.997 Q 481.764 75.864 481.764 89.596 L 481.764 186.976 Q 481.764 200.709 470.067 207.575 L 387.126 256.265 Q 375.429 263.131 363.732 256.265 L 280.791 207.575 Q 269.094 200.709 269.094 186.976 L 269.094 89.596 Q 269.094 75.863 280.791 68.997 Z" style="fill: rgb(239, 234, 93);" transform="matrix(-0.869317, 0.494256, -0.494256, -0.869316, 1230.138257, 208.532379)" bx:shape="n-gon 375.429 138.286 122.785 124.845 6 0.11 1@c0c16bb8"/>
  <path d="M 363.732 20.307 Q 375.429 13.441 387.126 20.307 L 470.067 68.997 Q 481.764 75.864 481.764 89.596 L 481.764 186.976 Q 481.764 200.709 470.067 207.575 L 387.126 256.265 Q 375.429 263.131 363.732 256.265 L 280.791 207.575 Q 269.094 200.709 269.094 186.976 L 269.094 89.596 Q 269.094 75.863 280.791 68.997 Z" style="fill: rgb(239, 234, 93);" transform="matrix(-0.869317, 0.494256, -0.494256, -0.869316, 1431.965161, 336.537766)" bx:shape="n-gon 375.429 138.286 122.785 124.845 6 0.11 1@c0c16bb8"/>
  <path d="M 363.732 20.307 Q 375.429 13.441 387.126 20.307 L 470.067 68.997 Q 481.764 75.864 481.764 89.596 L 481.764 186.976 Q 481.764 200.709 470.067 207.575 L 387.126 256.265 Q 375.429 263.131 363.732 256.265 L 280.791 207.575 Q 269.094 200.709 269.094 186.976 L 269.094 89.596 Q 269.094 75.863 280.791 68.997 Z" style="fill: rgb(239, 234, 93);" transform="matrix(-0.869317, 0.494256, -0.494256, -0.869316, 1411.489575, 573.47023)" bx:shape="n-gon 375.429 138.286 122.785 124.845 6 0.11 1@c0c16bb8"/>
  <path d="M 363.732 20.307 Q 375.429 13.441 387.126 20.307 L 470.067 68.997 Q 481.764 75.864 481.764 89.596 L 481.764 186.976 Q 481.764 200.709 470.067 207.575 L 387.126 256.265 Q 375.429 263.131 363.732 256.265 L 280.791 207.575 Q 269.094 200.709 269.094 186.976 L 269.094 89.596 Q 269.094 75.863 280.791 68.997 Z" style="fill: rgb(239, 234, 93);" transform="matrix(-0.869317, 0.494256, -0.494256, -0.869316, 1393.939526, 807.477249)" bx:shape="n-gon 375.429 138.286 122.785 124.845 6 0.11 1@c0c16bb8"/>
  <path d="M 363.732 20.307 Q 375.429 13.441 387.126 20.307 L 470.067 68.997 Q 481.764 75.864 481.764 89.596 L 481.764 186.976 Q 481.764 200.709 470.067 207.575 L 387.126 256.265 Q 375.429 263.131 363.732 256.265 L 280.791 207.575 Q 269.094 200.709 269.094 186.976 L 269.094 89.596 Q 269.094 75.863 280.791 68.997 Z" style="fill: rgb(239, 234, 93);" transform="matrix(-0.869317, 0.494256, -0.494256, -0.869316, 1183.335766, 921.555618)" bx:shape="n-gon 375.429 138.286 122.785 124.845 6 0.11 1@c0c16bb8"/>
  <path d="M 363.732 20.307 Q 375.429 13.441 387.126 20.307 L 470.067 68.997 Q 481.764 75.864 481.764 89.596 L 481.764 186.976 Q 481.764 200.709 470.067 207.575 L 387.126 256.265 Q 375.429 263.131 363.732 256.265 L 280.791 207.575 Q 269.094 200.709 269.094 186.976 L 269.094 89.596 Q 269.094 75.863 280.791 68.997 Z" style="fill: rgb(239, 234, 93);" transform="matrix(-0.869317, 0.494256, -0.494256, -0.869316, 975.655957, 1044.409561)" bx:shape="n-gon 375.429 138.286 122.785 124.845 6 0.11 1@c0c16bb8"/>
  <path d="M 363.732 20.307 Q 375.429 13.441 387.126 20.307 L 470.067 68.997 Q 481.764 75.864 481.764 89.596 L 481.764 186.976 Q 481.764 200.709 470.067 207.575 L 387.126 256.265 Q 375.429 263.131 363.732 256.265 L 280.791 207.575 Q 269.094 200.709 269.094 186.976 L 269.094 89.596 Q 269.094 75.863 280.791 68.997 Z" style="fill: rgb(239, 234, 93);" transform="matrix(-0.869317, 0.494256, -0.494256, -0.869316, 776.751843, 927.406143)" bx:shape="n-gon 375.429 138.286 122.785 124.845 6 0.11 1@c0c16bb8"/>
  <path d="M 363.732 20.307 Q 375.429 13.441 387.126 20.307 L 470.067 68.997 Q 481.764 75.864 481.764 89.596 L 481.764 186.976 Q 481.764 200.709 470.067 207.575 L 387.126 256.265 Q 375.429 263.131 363.732 256.265 L 280.791 207.575 Q 269.094 200.709 269.094 186.976 L 269.094 89.596 Q 269.094 75.863 280.791 68.997 Z" style="fill: rgb(239, 234, 93);" transform="matrix(-0.869317, 0.494256, -0.494256, -0.869316, 577.848523, 810.402298)" bx:shape="n-gon 375.429 138.286 122.785 124.845 6 0.11 1@c0c16bb8"/>
  <path d="M 363.732 20.307 Q 375.429 13.441 387.126 20.307 L 470.067 68.997 Q 481.764 75.864 481.764 89.596 L 481.764 186.976 Q 481.764 200.709 470.067 207.575 L 387.126 256.265 Q 375.429 263.131 363.732 256.265 L 280.791 207.575 Q 269.094 200.709 269.094 186.976 L 269.094 89.596 Q 269.094 75.863 280.791 68.997 Z" style="fill: rgb(239, 234, 93);" transform="matrix(-0.869317, 0.494256, -0.494256, -0.869316, 595.398694, 573.470108)" bx:shape="n-gon 375.429 138.286 122.785 124.845 6 0.11 1@c0c16bb8"/>
  <path d="M 363.732 20.307 Q 375.429 13.441 387.126 20.307 L 470.067 68.997 Q 481.764 75.864 481.764 89.596 L 481.764 186.976 Q 481.764 200.709 470.067 207.575 L 387.126 256.265 Q 375.429 263.131 363.732 256.265 L 280.791 207.575 Q 269.094 200.709 269.094 186.976 L 269.094 89.596 Q 269.094 75.863 280.791 68.997 Z" style="fill: rgb(239, 234, 93);" transform="matrix(-0.869317, 0.494256, -0.494256, -0.869316, 604.174267, 333.612503)" bx:shape="n-gon 375.429 138.286 122.785 124.845 6 0.11 1@c0c16bb8"/>
  <path d="M 363.732 20.307 Q 375.429 13.441 387.126 20.307 L 470.067 68.997 Q 481.764 75.864 481.764 89.596 L 481.764 186.976 Q 481.764 200.709 470.067 207.575 L 387.126 256.265 Q 375.429 263.131 363.732 256.265 L 280.791 207.575 Q 269.094 200.709 269.094 186.976 L 269.094 89.596 Q 269.094 75.863 280.791 68.997 Z" style="fill: rgb(239, 234, 93);" transform="matrix(-0.869317, 0.494256, -0.494256, -0.869316, 817.703198, 213.683975)" bx:shape="n-gon 375.429 138.286 122.785 124.845 6 0.11 1@c0c16bb8"/>
  <path d="M 363.732 20.307 Q 375.429 13.441 387.126 20.307 L 470.067 68.997 Q 481.764 75.864 481.764 89.596 L 481.764 186.976 Q 481.764 200.709 470.067 207.575 L 387.126 256.265 Q 375.429 263.131 363.732 256.265 L 280.791 207.575 Q 269.094 200.709 269.094 186.976 L 269.094 89.596 Q 269.094 75.863 280.791 68.997 Z" style="fill: rgb(239, 234, 93);" transform="matrix(-0.869317, 0.494256, -0.494256, -0.869316, 811.852917, 459.391586)" bx:shape="n-gon 375.429 138.286 122.785 124.845 6 0.11 1@c0c16bb8"/>
  <path d="M 363.732 20.307 Q 375.429 13.441 387.126 20.307 L 470.067 68.997 Q 481.764 75.864 481.764 89.596 L 481.764 186.976 Q 481.764 200.709 470.067 207.575 L 387.126 256.265 Q 375.429 263.131 363.732 256.265 L 280.791 207.575 Q 269.094 200.709 269.094 186.976 L 269.094 89.596 Q 269.094 75.863 280.791 68.997 Z" style="fill: rgb(239, 234, 93);" transform="matrix(-0.869317, 0.494256, -0.494256, -0.869316, 1013.683972, 328.461227)" bx:shape="n-gon 375.429 138.286 122.785 124.845 6 0.11 1@c0c16bb8"/>
  <path d="M 363.732 20.307 Q 375.429 13.441 387.126 20.307 L 470.067 68.997 Q 481.764 75.864 481.764 89.596 L 481.764 186.976 Q 481.764 200.709 470.067 207.575 L 387.126 256.265 Q 375.429 263.131 363.732 256.265 L 280.791 207.575 Q 269.094 200.709 269.094 186.976 L 269.094 89.596 Q 269.094 75.863 280.791 68.997 Z" style="fill: rgb(239, 234, 93);" transform="matrix(-0.869317, 0.494256, -0.494256, -0.869316, 1212.587719, 445.464829)" bx:shape="n-gon 375.429 138.286 122.785 124.845 6 0.11 1@c0c16bb8"/>
  <path d="M 363.732 20.307 Q 375.429 13.441 387.126 20.307 L 470.067 68.997 Q 481.764 75.864 481.764 89.596 L 481.764 186.976 Q 481.764 200.709 470.067 207.575 L 387.126 256.265 Q 375.429 263.131 363.732 256.265 L 280.791 207.575 Q 269.094 200.709 269.094 186.976 L 269.094 89.596 Q 269.094 75.863 280.791 68.997 Z" style="fill: rgb(239, 234, 93);" transform="matrix(-0.869317, 0.494256, -0.494256, -0.869316, 1001.983777, 568.318619)" bx:shape="n-gon 375.429 138.286 122.785 124.845 6 0.11 1@c0c16bb8"/>
  <path d="M 363.732 20.307 Q 375.429 13.441 387.126 20.307 L 470.067 68.997 Q 481.764 75.864 481.764 89.596 L 481.764 186.976 Q 481.764 200.709 470.067 207.575 L 387.126 256.265 Q 375.429 263.131 363.732 256.265 L 280.791 207.575 Q 269.094 200.709 269.094 186.976 L 269.094 89.596 Q 269.094 75.863 280.791 68.997 Z" style="fill: rgb(239, 234, 93);" transform="matrix(-0.869317, 0.494256, -0.494256, -0.869316, 791.377148, 702.174271)" bx:shape="n-gon 375.429 138.286 122.785 124.845 6 0.11 1@c0c16bb8"/>
  <path d="M 363.732 20.307 Q 375.429 13.441 387.126 20.307 L 470.067 68.997 Q 481.764 75.864 481.764 89.596 L 481.764 186.976 Q 481.764 200.709 470.067 207.575 L 387.126 256.265 Q 375.429 263.131 363.732 256.265 L 280.791 207.575 Q 269.094 200.709 269.094 186.976 L 269.094 89.596 Q 269.094 75.863 280.791 68.997 Z" style="fill: rgb(239, 234, 93);" transform="matrix(-0.869317, 0.494256, -0.494256, -0.869316, 984.431286, 819.177445)" bx:shape="n-gon 375.429 138.286 122.785 124.845 6 0.11 1@c0c16bb8"/>
  <path d="M 363.732 20.307 Q 375.429 13.441 387.126 20.307 L 470.067 68.997 Q 481.764 75.864 481.764 89.596 L 481.764 186.976 Q 481.764 200.709 470.067 207.575 L 387.126 256.265 Q 375.429 263.131 363.732 256.265 L 280.791 207.575 Q 269.094 200.709 269.094 186.976 L 269.094 89.596 Q 269.094 75.863 280.791 68.997 Z" style="fill: rgb(239, 234, 93);" transform="matrix(-0.869317, 0.494256, -0.494256, -0.869316, 1197.962597, 679.471939)" bx:shape="n-gon 375.429 138.286 122.785 124.845 6 0.11 1@c0c16bb8"/>
</svg>