<?xml version="1.0" encoding="utf-8"?>
<svg version="1.0" width="1216.000000pt" height="1280.000000pt" viewBox="0 0 1216.000000 1280.000000" preserveAspectRatio="xMidYMid meet" xmlns="http://www.w3.org/2000/svg">
  <g transform="translate(0.000000,1280.000000) scale(0.100000,-0.100000)" fill="orange" stroke="none">
    <path d="M5244 12165 l-397 -635 -750 -2 -751 -3 -397 -635 -397 -635 -753 -5 -753 -5 -389 -620 c-213 -341 -393 -629 -398 -641 -9 -17 41 -117 331 -660 189 -351 346 -640 350 -642 5 -2 -169 -287 -386 -633 -217 -347 -394 -635 -394 -639 0 -5 151 -290 336 -635 184 -345 334 -628 332 -629 -2 0 -11 -5 -20 -11 -15 -8 -789 -1233 -805 -1272 -3 -7 149 -301 337 -653 l342 -640 737 0 737 0 341 -637 342 -638 736 -5 736 -5 343 -640 342 -640 749 0 749 0 400 642 401 642 740 1 740 1 394 629 c216 347 397 630 402 630 5 0 9 -4 9 -10 0 -7 256 -10 749 -10 l748 0 399 637 c220 350 400 640 402 644 3 8 -677 1281 -688 1289 -5 3 170 290 387 637 l395 632 -332 623 c-183 343 -337 627 -341 633 -16 17 -9 24 28 27 l37 3 389 620 c213 341 393 630 399 642 9 18 -35 106 -332 662 l-343 641 -741 0 -741 0 -345 645 -345 645 -741 0 -741 0 -344 645 -344 644 -747 1 -747 0 -397 -635z"/>
  </g>
  <polyline style="stroke: rgb(0, 0, 0); fill: rgb(239, 234, 93);" points="112.322 500.768 51.481 386.106 117.002 276.124 245.704 276.124"/>
  <polyline style="stroke: rgb(0, 0, 0); fill: rgb(239, 234, 93);" points="172.333 499.768 111.492 385.106 177.013 275.124 305.715 275.124" transform="matrix(-1, 0, 0, -1, 417.206985, 774.891998)"/>
  <polyline style="stroke: rgb(0, 0, 0); fill: rgb(239, 234, 93);" points="338.55 374.906 277.709 260.244 343.23 150.262 471.932 150.262"/>
  <polyline style="stroke: rgb(0, 0, 0); fill: rgb(239, 234, 93);" points="398.561 373.906 337.72 259.244 403.241 149.262 531.943 149.262" transform="matrix(-1, 0, 0, -1, 869.662994, 523.167999)"/>
  <polyline style="stroke: rgb(0, 0, 0); fill: rgb(239, 234, 93);" points="572.554 241.524 511.713 126.862 577.234 16.88 705.936 16.88"/>
  <polyline style="stroke: rgb(0, 0, 0); fill: rgb(239, 234, 93);" points="632.565 240.524 571.724 125.862 637.245 15.88 765.947 15.88" transform="matrix(-1, 0, 0, -1, 1337.671021, 256.403997)"/>
  <polyline style="stroke: rgb(0, 0, 0); fill: rgb(239, 234, 93);" points="783.157 379.586 722.316 264.924 787.837 154.942 916.539 154.942"/>
  <polyline style="stroke: rgb(0, 0, 0); fill: rgb(239, 234, 93);" points="843.168 378.586 782.327 263.924 847.848 153.942 976.55 153.942" transform="matrix(-1, 0, 0, -1, 1758.877014, 532.528)"/>
  <polyline style="stroke: rgb(0, 0, 0); fill: rgb(239, 234, 93);" points="998.441 508.288 937.6 393.626 1003.121 283.644 1131.823 283.644"/>
  <polyline style="stroke: rgb(0, 0, 0); fill: rgb(239, 234, 93);" points="1058.452 507.288 997.611 392.626 1063.132 282.644 1191.834 282.644" transform="matrix(-1, 0, 0, -1, 2189.445007, 789.932007)"/>
  <polyline style="stroke: rgb(0, 0, 0); fill: rgb(239, 234, 93);" points="979.72 751.652 918.879 636.99 984.4 527.008 1113.102 527.008"/>
  <polyline style="stroke: rgb(0, 0, 0); fill: rgb(239, 234, 93);" points="1039.731 750.652 978.89 635.99 1044.411 526.008 1173.113 526.008" transform="matrix(-1, 0, 0, -1, 2152.003052, 1276.659973)"/>
  <polyline style="stroke: rgb(0, 0, 0); fill: rgb(239, 234, 93);" points="965.68 1009.056 904.839 894.394 970.36 784.412 1099.062 784.412"/>
  <polyline style="stroke: rgb(0, 0, 0); fill: rgb(239, 234, 93);" points="1025.691 1008.056 964.85 893.394 1030.371 783.412 1159.073 783.412" transform="matrix(-1, 0, 0, -1, 2123.922974, 1791.468018)"/>
  <polyline style="stroke: rgb(0, 0, 0); fill: rgb(239, 234, 93);" points="741.037 1128.398 680.196 1013.736 745.717 903.754 874.419 903.754"/>
  <polyline style="stroke: rgb(0, 0, 0); fill: rgb(239, 234, 93);" points="801.048 1127.398 740.207 1012.736 805.728 902.754 934.43 902.754" transform="matrix(-1, 0, 0, -1, 1674.636963, 2030.151978)"/>
  <polyline style="stroke: rgb(0, 0, 0); fill: rgb(239, 234, 93);" points="511.713 1264.12 450.872 1149.458 516.393 1039.476 645.095 1039.476"/>
  <polyline style="stroke: rgb(0, 0, 0); fill: rgb(239, 234, 93);" points="571.724 1263.12 510.883 1148.458 576.404 1038.476 705.106 1038.476" transform="matrix(-1, 0, 0, -1, 1215.989014, 2301.595947)"/>
  <polyline style="stroke: rgb(0, 0, 0); fill: rgb(239, 234, 93);" points="301.11 1130.738 240.269 1016.076 305.79 906.094 434.492 906.094"/>
  <polyline style="stroke: rgb(0, 0, 0); fill: rgb(239, 234, 93);" points="361.121 1129.738 300.28 1015.076 365.801 905.094 494.503 905.094" transform="matrix(-1, 0, 0, -1, 794.78299, 2034.832031)"/>
  <polyline style="stroke: rgb(0, 0, 0); fill: rgb(239, 234, 93);" points="90.506 1004.376 29.665 889.714 95.186 779.732 223.888 779.732"/>
  <polyline style="stroke: rgb(0, 0, 0); fill: rgb(239, 234, 93);" points="150.517 1003.376 89.676 888.714 155.197 778.732 283.899 778.732" transform="matrix(-1, 0, 0, -1, 373.574997, 1782.107971)"/>
  <polyline style="stroke: rgb(0, 0, 0); fill: rgb(239, 234, 93);" points="104.547 753.992 43.706 639.33 109.227 529.348 237.929 529.348"/>
  <polyline style="stroke: rgb(0, 0, 0); fill: rgb(239, 234, 93);" points="164.558 752.992 103.717 638.33 169.238 528.348 297.94 528.348" transform="matrix(-1, 0, 0, -1, 401.656998, 1281.340027)"/>
  <polyline style="stroke: rgb(0, 0, 0); fill: rgb(239, 234, 93);" points="324.51 625.29 263.669 510.628 329.19 400.646 457.892 400.646"/>
  <polyline style="stroke: rgb(0, 0, 0); fill: rgb(239, 234, 93);" points="384.521 624.29 323.68 509.628 389.201 399.646 517.903 399.646" transform="matrix(-1, 0, 0, -1, 841.583008, 1023.935974)"/>
  <polyline style="stroke: rgb(0, 0, 0); fill: rgb(239, 234, 93);" points="567.874 498.928 507.033 384.266 572.554 274.284 701.256 274.284"/>
  <polyline style="stroke: rgb(0, 0, 0); fill: rgb(239, 234, 93);" points="627.885 497.928 567.044 383.266 632.565 273.284 761.267 273.284" transform="matrix(-1, 0, 0, -1, 1328.311035, 771.212006)"/>
  <polyline style="stroke: rgb(0, 0, 0); fill: rgb(239, 234, 93);" points="778.477 625.29 717.636 510.628 783.157 400.646 911.859 400.646"/>
  <polyline style="stroke: rgb(0, 0, 0); fill: rgb(239, 234, 93);" points="838.488 624.29 777.647 509.628 843.168 399.646 971.87 399.646" transform="matrix(-1, 0, 0, -1, 1749.516968, 1023.935974)"/>
  <polyline style="stroke: rgb(0, 0, 0); fill: rgb(239, 234, 93);" points="762.097 878.014 701.256 763.352 766.777 653.37 895.479 653.37"/>
  <polyline style="stroke: rgb(0, 0, 0); fill: rgb(239, 234, 93);" points="822.108 877.014 761.267 762.352 826.788 652.37 955.49 652.37" transform="matrix(-1, 0, 0, -1, 1716.757019, 1529.383972)"/>
  <polyline style="stroke: rgb(0, 0, 0); fill: rgb(239, 234, 93);" points="516.393 1011.396 455.552 896.734 521.073 786.752 649.775 786.752"/>
  <polyline style="stroke: rgb(0, 0, 0); fill: rgb(239, 234, 93);" points="576.404 1010.396 515.563 895.734 581.084 785.752 709.786 785.752" transform="matrix(-1, 0, 0, -1, 1225.348999, 1796.14801)"/>
  <polyline style="stroke: rgb(0, 0, 0); fill: rgb(239, 234, 93);" points="312.81 878.014 251.969 763.352 317.49 653.37 446.192 653.37"/>
  <polyline style="stroke: rgb(0, 0, 0); fill: rgb(239, 234, 93);" points="372.821 877.014 311.98 762.352 377.501 652.37 506.203 652.37" transform="matrix(-1, 0, 0, -1, 818.183014, 1529.383972)"/>
  <polyline style="stroke: rgb(0, 0, 0); fill: rgb(239, 234, 93);" points="544.474 753.992 483.633 639.33 549.154 529.348 677.856 529.348"/>
  <polyline style="stroke: rgb(0, 0, 0); fill: rgb(239, 234, 93);" points="604.485 752.992 543.644 638.33 609.165 528.348 737.867 528.348" transform="matrix(-1, 0, 0, -1, 1281.510986, 1281.340027)"/>
</svg>
