<?xml version="1.0" encoding="utf-8"?>
<svg viewBox="554.8 371 358.923 248.4" width="358.923" height="248.4" xmlns="http://www.w3.org/2000/svg">
  <path d="M7242 8948 c-103 -182 -157 -290 -191 -383 l-27 -75 -49 42 c-108 90 -368 238 -418 238 -23 0 -33 -200 -18 -338 7 -58 15 -110 17 -114 8 -12 -2 -10 -64 16 -137 57 -456 159 -466 148 -4 -3 -6 -35 -6 -72 0 -105 25 -142 125 -185 44 -19 102 -49 128 -65 47 -29 48 -29 41 -8 -3 13 -13 35 -21 51 -8 17 -10 27 -3 27 21 0 262 -100 384 -160 68 -33 172 -89 231 -125 59 -36 109 -64 110 -63 1 2 14 39 29 83 15 44 49 123 75 175 65 132 201 370 211 370 23 0 243 -419 285 -544 17 -47 33 -86 36 -86 4 0 46 24 93 54 115 73 256 144 396 202 98 40 246 94 257 94 2 0 -13 -32 -32 -70 l-36 -71 53 35 c29 19 94 56 143 83 80 43 93 54 117 99 25 46 64 171 56 179 -6 5 -319 -84 -453 -130 -71 -24 -131 -42 -133 -41 -1 2 2 25 9 52 12 53 16 348 4 383 -3 11 -12 21 -18 21 -22 0 -214 -97 -279 -141 -34 -23 -91 -65 -126 -92 -35 -27 -64 -48 -66 -46 -1 2 -15 39 -30 81 -15 43 -48 117 -73 165 -62 123 -195 353 -203 353 -4 0 -43 -64 -88 -142z" style="fill: rgb(50, 207, 199);" transform="matrix(0.1, 0, 0, -0.1, 0, 1280)"/>
  <path d="M7252 8188 c-115 -203 -154 -282 -196 -400 -21 -56 -41 -111 -45 -121 -5 -15 -12 -11 -38 27 -61 86 -236 195 -442 275 -58 23 -106 39 -108 37 -2 -2 1 -16 7 -31 6 -15 8 -30 6 -33 -3 -2 -29 17 -57 42 -157 141 -456 252 -782 290 l-49 6 49 -54 c76 -83 131 -195 174 -356 93 -345 377 -619 749 -721 70 -19 85 -28 137 -79 114 -110 281 -166 438 -144 68 9 69 9 152 -33 l84 -43 51 20 c28 10 67 30 88 44 32 21 42 23 81 15 110 -21 242 -3 347 49 31 15 86 54 122 88 60 56 73 63 158 88 370 105 636 367 737 725 14 52 38 122 52 155 33 80 107 190 144 217 17 12 28 23 26 25 -2 3 -52 -2 -110 -11 -312 -43 -580 -149 -736 -290 -41 -38 -55 -30 -31 16 13 23 15 23 -52 0 -228 -78 -428 -201 -509 -314 l-27 -38 -28 83 c-15 46 -42 117 -60 159 -33 79 -216 415 -238 437 -10 10 -28 -15 -94 -130z" style="fill: rgb(50, 207, 199);" transform="matrix(0.1, 0, 0, -0.1, 0, 1280)"/>
  <path d="M5823 7355 c-59 -16 -128 -49 -139 -66 -9 -15 37 -51 119 -92 l67 -34 -46 -36 c-26 -20 -53 -46 -61 -57 -14 -20 -12 -20 60 -20 41 0 89 -3 106 -6 l31 -6 -50 -55 c-28 -30 -50 -58 -50 -63 0 -11 119 -37 210 -45 81 -7 215 7 280 30 22 8 40 11 40 7 -2 -23 -65 -76 -114 -96 l-57 -24 30 -10 c106 -37 431 -41 599 -7 l84 16 57 -54 c96 -92 199 -131 346 -131 147 0 278 51 369 143 l47 48 92 -19 c179 -37 461 -35 602 4 l40 11 -55 18 c-39 13 -66 31 -92 61 -20 23 -36 44 -34 45 2 2 22 -4 45 -12 80 -28 212 -39 314 -26 104 14 177 30 177 40 0 4 -22 32 -50 63 l-49 56 31 6 c17 3 65 6 107 6 l76 1 -62 57 -61 58 72 37 c40 21 83 48 96 62 l22 24 -33 21 c-41 24 -114 47 -178 55 l-46 6 -50 -61 c-139 -172 -329 -269 -526 -270 -68 0 -78 -3 -99 -25 -41 -44 -128 -96 -209 -125 -81 -30 -236 -56 -273 -47 -14 4 -31 -2 -50 -18 -78 -66 -306 -71 -433 -10 -37 17 -73 25 -135 28 -56 3 -111 13 -160 31 -81 28 -199 102 -224 142 -15 22 -23 24 -95 24 -95 0 -211 28 -292 71 -77 42 -182 130 -239 202 -50 64 -63 67 -157 42z" style="fill: rgb(50, 207, 199);" transform="matrix(0.1, 0, 0, -0.1, 0, 1280)"/>
</svg>