<?xml version="1.0" encoding="utf-8"?>
<svg viewBox="31.9 1.77 377.692 244.096" width="377.692" height="244.096" xmlns="http://www.w3.org/2000/svg">
  <path d="M2133 12692 c-92 -161 -177 -328 -209 -412 -15 -41 -29 -77 -31 -79 -1 -2 -29 16 -60 41 -32 24 -87 64 -122 87 -77 52 -289 156 -299 146 -11 -11 -7 -376 5 -423 8 -33 8 -42 0 -38 -121 52 -514 182 -523 173 -4 -3 -7 -35 -7 -70 -1 -46 5 -76 21 -109 21 -42 29 -48 108 -81 47 -20 106 -50 131 -67 42 -29 44 -29 37 -8 -3 13 -13 36 -21 51 -8 16 -13 30 -11 32 2 1 64 -22 138 -51 165 -65 385 -174 504 -249 49 -30 89 -54 90 -53 1 2 12 37 26 78 27 83 146 323 232 468 l55 94 36 -59 c90 -149 188 -338 231 -444 25 -64 46 -121 46 -127 0 -7 1 -12 3 -12 2 0 53 30 113 66 132 80 207 118 346 177 123 53 279 109 285 103 2 -2 -9 -31 -26 -65 -17 -33 -31 -63 -31 -66 0 -3 21 10 48 29 26 19 88 54 137 79 74 38 95 53 116 89 25 40 49 105 63 171 6 26 5 27 -21 21 -93 -22 -383 -108 -467 -138 l-98 -35 7 27 c10 42 18 325 11 386 l-7 55 -52 -20 c-129 -51 -312 -163 -394 -242 -18 -17 -34 -29 -36 -26 -2 2 -16 38 -32 79 -35 94 -98 220 -186 375 -100 177 -84 172 -156 47z" style="fill: rgb(69, 221, 115);" transform="matrix(0.1, 0, 0, -0.1, 0, 1280)"/>
  <path d="M2149 11943 c-101 -171 -193 -358 -234 -475 l-41 -118 -31 44 c-41 58 -142 134 -263 196 -99 50 -279 124 -286 117 -2 -2 0 -18 5 -35 12 -39 2 -41 -30 -6 -129 139 -478 275 -796 310 l-61 6 53 -55 c66 -68 131 -199 174 -350 52 -182 132 -320 260 -448 128 -127 290 -220 480 -275 79 -23 99 -32 128 -65 107 -119 295 -184 462 -161 62 9 65 8 138 -29 41 -22 85 -39 98 -39 13 0 58 18 100 39 75 39 76 39 143 30 169 -25 357 40 465 160 29 33 49 42 128 65 379 108 642 369 744 736 38 137 105 270 170 337 l53 55 -61 -6 c-106 -12 -301 -54 -398 -87 -158 -53 -325 -145 -393 -218 -38 -39 -47 -39 -35 1 5 17 7 33 5 35 -8 8 -193 -69 -297 -124 -127 -66 -212 -130 -255 -195 -30 -45 -44 -51 -44 -21 0 25 -71 206 -117 298 -55 110 -192 353 -204 360 -4 3 -31 -34 -60 -82z" style="fill: rgb(69, 221, 115);" transform="matrix(0.1, 0, 0, -0.1, 0, 1280)"/>
  <path d="M433 11300 c-23 -5 -58 -17 -78 -27 l-36 -19 43 -43 c49 -48 106 -85 176 -111 45 -17 52 -17 114 -2 l67 16 -45 49 c-24 27 -54 71 -66 98 l-23 49 -55 -1 c-30 -1 -74 -5 -97 -9z" style="fill: rgb(69, 221, 115);" transform="matrix(0.1, 0, 0, -0.1, 0, 1280)"/>
  <path d="M3816 11266 c-10 -25 -40 -70 -67 -100 l-49 -53 63 -14 c34 -7 73 -12 87 -10 41 4 156 70 207 117 45 42 46 45 28 58 -36 23 -89 37 -171 43 l-80 6 -18 -47z" style="fill: rgb(69, 221, 115);" transform="matrix(0.1, 0, 0, -0.1, 0, 1280)"/>
  <path d="M635 11046 c-55 -18 -114 -49 -154 -84 l-35 -29 55 -6 c30 -3 91 -17 135 -31 l82 -26 63 29 c35 16 73 32 83 35 17 6 16 9 -14 31 -18 13 -44 40 -58 60 -23 32 -30 35 -71 34 -25 0 -64 -6 -86 -13z" style="fill: rgb(69, 221, 115);" transform="matrix(0.1, 0, 0, -0.1, 0, 1280)"/>
  <path d="M3631 11026 c-13 -20 -39 -48 -59 -61 l-35 -24 27 -11 c15 -5 30 -10 33 -10 3 0 28 -11 55 -25 l50 -25 79 25 c44 14 105 28 135 31 l55 7 -23 24 c-40 43 -159 95 -231 100 l-64 5 -22 -36z" style="fill: rgb(69, 221, 115);" transform="matrix(0.1, 0, 0, -0.1, 0, 1280)"/>
  <path d="M880 10891 c-71 -23 -164 -72 -214 -115 l-40 -33 60 -22 c228 -86 460 -91 624 -14 l55 26 -50 7 c-116 16 -258 75 -339 139 -21 17 -39 31 -40 30 0 0 -26 -8 -56 -18z" style="fill: rgb(69, 221, 115);" transform="matrix(0.1, 0, 0, -0.1, 0, 1280)"/>
  <path d="M3415 10858 c-80 -54 -205 -104 -297 -116 l-63 -9 56 -26 c73 -33 189 -57 280 -57 88 0 249 32 337 67 l66 27 -38 32 c-47 41 -179 110 -232 122 -37 8 -43 6 -109 -40z" style="fill: rgb(69, 221, 115);" transform="matrix(0.1, 0, 0, -0.1, 0, 1280)"/>
  <path d="M1375 10699 c-22 -11 -74 -54 -115 -95 -58 -57 -87 -78 -130 -92 l-54 -19 44 -11 c202 -50 437 -36 670 41 l95 31 -85 7 c-47 4 -106 12 -130 19 -66 17 -156 68 -190 107 -34 39 -51 41 -105 12z" style="fill: rgb(69, 221, 115);" transform="matrix(0.1, 0, 0, -0.1, 0, 1280)"/>
  <path d="M2941 10689 c-53 -67 -175 -116 -319 -128 l-87 -7 95 -31 c232 -76 468 -91 668 -41 l43 11 -56 23 c-41 16 -76 42 -125 92 -67 68 -137 113 -176 111 -10 0 -30 -14 -43 -30z" style="fill: rgb(69, 221, 115);" transform="matrix(0.1, 0, 0, -0.1, 0, 1280)"/>
  <path d="M1987 10582 c-19 -22 -37 -58 -47 -94 -7 -24 -4 -34 21 -62 44 -50 118 -79 220 -84 128 -6 230 29 281 98 17 24 17 28 3 70 -9 25 -24 55 -33 68 l-18 23 -40 -39 c-83 -84 -252 -84 -335 -1 -34 34 -39 36 -52 21z" style="fill: rgb(69, 221, 115);" transform="matrix(0.1, 0, 0, -0.1, 0, 1280)"/>
</svg>