<?xml version="1.0" encoding="utf-8"?>
<svg viewBox="14.9 1048 411.813 232.1" width="411.813" height="232.1" xmlns="http://www.w3.org/2000/svg">
  <path d="M2145 2218 c-212 -369 -305 -629 -305 -854 0 -88 13 -164 37 -222 l15 -36 37 100 c21 54 55 133 75 174 59 118 198 360 207 360 22 0 236 -407 283 -539 30 -84 35 -92 45 -74 40 76 53 271 26 409 -25 133 -101 345 -164 459 -114 206 -184 325 -190 325 -4 0 -34 -46 -66 -102z" style="fill: rgb(186, 90, 149);" transform="matrix(0.1, 0, 0, -0.1, 0, 1280)"/>
  <path d="M1286 1939 c-13 -125 -3 -329 20 -401 3 -10 33 -34 67 -54 150 -88 265 -191 358 -323 23 -33 44 -59 46 -57 2 2 -3 31 -12 65 -38 149 -39 366 0 471 9 25 17 50 18 56 7 40 -353 272 -464 299 -25 6 -26 5 -33 -56z" style="fill: rgb(186, 90, 149);" transform="matrix(0.1, 0, 0, -0.1, 0, 1280)"/>
  <path d="M3050 1954 c-101 -48 -258 -150 -327 -211 l-42 -38 22 -60 c20 -54 22 -78 21 -230 -1 -139 -5 -184 -21 -245 -12 -41 -20 -76 -19 -78 2 -1 19 22 39 51 98 142 213 250 358 334 l77 45 11 61 c19 115 23 178 16 298 -6 100 -10 119 -24 119 -9 0 -59 -21 -111 -46z" style="fill: rgb(186, 90, 149);" transform="matrix(0.1, 0, 0, -0.1, 0, 1280)"/>
  <path d="M690 1623 c0 -60 25 -166 48 -205 9 -16 49 -49 89 -74 40 -25 107 -70 149 -100 l76 -55 -7 57 c-4 32 -11 68 -16 81 -11 30 0 30 93 -3 116 -41 343 -156 462 -234 60 -39 110 -69 113 -66 2 2 -49 58 -114 123 -176 177 -348 300 -564 402 -96 46 -237 99 -301 115 -28 6 -28 6 -28 -41z" style="fill: rgb(186, 90, 149);" transform="matrix(0.1, 0, 0, -0.1, 0, 1280)"/>
  <path d="M3605 1625 c-185 -64 -394 -177 -560 -304 -68 -52 -267 -242 -297 -284 -15 -21 4 -12 89 44 130 85 353 198 466 235 45 15 88 29 95 32 9 3 10 -2 3 -20 -5 -13 -12 -50 -16 -82 -7 -55 -7 -57 11 -46 11 6 80 53 154 103 131 90 136 95 158 149 12 32 25 91 29 133 7 91 12 89 -132 40z" style="fill: rgb(186, 90, 149);" transform="matrix(0.1, 0, 0, -0.1, 0, 1280)"/>
  <path d="M2128 1327 c-148 -259 -224 -443 -262 -629 -20 -98 -21 -266 -1 -341 41 -156 153 -280 307 -339 l52 -19 83 41 c229 113 320 332 268 636 -21 119 -84 304 -146 427 -56 113 -198 365 -208 372 -4 2 -46 -65 -93 -148z" style="fill: rgb(186, 90, 149);" transform="matrix(0.1, 0, 0, -0.1, 0, 1280)"/>
  <path d="M193 1381 c82 -88 131 -185 182 -362 83 -294 270 -514 551 -649 85 -41 227 -87 304 -97 l45 -6 -41 46 c-119 135 -184 371 -172 628 l6 108 -62 59 c-104 100 -228 169 -415 231 -88 29 -297 73 -399 84 l-43 5 44 -47z" style="fill: rgb(186, 90, 149);" transform="matrix(0.1, 0, 0, -0.1, 0, 1280)"/>
  <path d="M4170 1414 c-328 -42 -623 -165 -773 -322 l-39 -40 -2 -173 c-3 -185 -15 -263 -60 -381 -29 -79 -66 -140 -115 -192 l-36 -38 55 6 c78 10 252 70 340 117 193 104 344 257 437 444 29 57 41 90 94 260 32 102 97 223 151 279 26 27 47 50 45 51 -1 1 -45 -4 -97 -11z" style="fill: rgb(186, 90, 149);" transform="matrix(0.1, 0, 0, -0.1, 0, 1280)"/>
  <path d="M1156 1143 c5 -10 9 -115 10 -233 1 -283 16 -360 106 -532 78 -152 205 -255 361 -294 61 -16 248 -16 264 -1 3 4 -11 25 -32 48 -20 23 -50 70 -66 104 -48 102 -61 187 -57 380 l3 171 -35 49 c-20 27 -67 73 -105 102 -76 58 -265 155 -384 197 -64 23 -72 24 -65 9z" style="fill: rgb(186, 90, 149);" transform="matrix(0.1, 0, 0, -0.1, 0, 1280)"/>
  <path d="M3132 1106 c-242 -98 -387 -200 -445 -313 -14 -26 -15 -45 -8 -115 24 -231 -22 -436 -120 -542 -23 -26 -39 -49 -36 -53 4 -3 51 -8 104 -11 176 -8 294 37 413 157 60 60 86 96 123 171 77 156 91 234 92 500 1 124 5 233 9 243 4 9 7 17 5 17 -2 0 -64 -24 -137 -54z" style="fill: rgb(186, 90, 149);" transform="matrix(0.1, 0, 0, -0.1, 0, 1280)"/>
</svg>