<?xml version="1.0" encoding="utf-8"?>
<svg viewBox="41.2 371 358.398 245" width="358.398" height="245" xmlns="http://www.w3.org/2000/svg">
  <path d="M2122 8968 c-126 -225 -140 -252 -186 -364 -68 -167 -97 -287 -103 -429 -6 -125 3 -195 33 -263 14 -30 18 -33 22 -17 10 46 87 226 129 305 86 159 175 310 182 310 9 0 148 -244 207 -360 20 -41 54 -120 75 -175 21 -57 40 -94 43 -85 32 86 38 119 43 205 9 168 -40 375 -138 584 -51 109 -220 411 -230 411 -4 0 -39 -55 -77 -122z" style="fill: rgb(255, 94, 94);" transform="matrix(0.1, 0, 0, -0.1, 0, 1280)"/>
  <path d="M1275 8704 c-10 -85 0 -327 15 -376 9 -32 24 -44 111 -98 120 -74 211 -157 299 -274 35 -47 65 -84 67 -83 1 2 -4 27 -12 57 -41 154 -42 352 -3 478 l20 67 -47 42 c-97 88 -329 226 -417 248 -26 7 -26 6 -33 -61z" style="fill: rgb(255, 94, 94);" transform="matrix(0.1, 0, 0, -0.1, 0, 1280)"/>
  <path d="M3033 8720 c-106 -50 -246 -141 -321 -207 l-42 -38 22 -65 c19 -57 22 -85 21 -225 0 -126 -5 -177 -21 -240 -18 -70 -18 -77 -4 -59 9 12 47 60 84 107 37 47 91 105 120 130 59 49 198 143 228 152 25 8 39 59 49 183 8 92 5 241 -5 290 -2 12 -10 22 -17 22 -6 0 -58 -22 -114 -50z" style="fill: rgb(255, 94, 94);" transform="matrix(0.1, 0, 0, -0.1, 0, 1280)"/>
  <path d="M680 8387 c0 -61 23 -157 48 -199 9 -16 49 -49 89 -74 40 -25 106 -69 148 -99 83 -60 83 -60 61 43 l-13 63 31 -6 c106 -22 369 -150 538 -261 59 -39 102 -62 97 -52 -16 29 -189 200 -269 265 -180 145 -407 270 -613 338 -60 19 -110 35 -113 35 -2 0 -4 -24 -4 -53z" style="fill: rgb(255, 94, 94);" transform="matrix(0.1, 0, 0, -0.1, 0, 1280)"/>
  <path d="M3585 8392 c-199 -69 -390 -174 -563 -309 -89 -70 -274 -248 -292 -283 -7 -12 34 9 102 54 120 79 285 165 408 214 89 35 150 53 150 44 0 -4 -6 -40 -14 -79 -7 -40 -12 -73 -9 -73 2 0 44 28 92 63 49 34 115 78 148 99 69 42 96 87 113 190 15 93 13 118 -7 118 -10 0 -68 -17 -128 -38z" style="fill: rgb(255, 94, 94);" transform="matrix(0.1, 0, 0, -0.1, 0, 1280)"/>
  <path d="M2163 8042 c-140 -236 -199 -355 -253 -510 l-36 -102 -32 45 c-40 57 -141 131 -264 195 -97 50 -277 125 -284 117 -2 -2 0 -18 5 -35 12 -39 2 -41 -30 -6 -130 140 -474 273 -795 309 l-62 7 53 -55 c65 -67 132 -200 170 -337 31 -112 86 -233 145 -321 55 -82 177 -203 258 -258 90 -60 232 -126 338 -156 83 -24 96 -31 150 -84 119 -115 305 -172 462 -142 39 8 51 5 118 -30 41 -22 87 -39 101 -39 14 0 59 18 101 39 71 37 81 39 122 31 65 -13 126 -12 205 5 99 21 183 66 265 141 38 35 78 64 88 64 31 0 183 55 262 95 268 135 442 343 529 632 60 199 100 280 178 360 28 29 45 53 37 53 -43 0 -234 -35 -333 -60 -204 -54 -378 -137 -485 -232 -30 -26 -56 -48 -59 -48 -8 0 4 43 16 58 15 20 -6 15 -106 -24 -212 -83 -391 -196 -454 -288 -19 -29 -35 -43 -37 -34 -3 7 -10 31 -16 53 -28 93 -103 261 -173 386 -115 206 -128 228 -137 234 -4 3 -26 -26 -47 -63z" style="fill: rgb(255, 94, 94);" transform="matrix(0.1, 0, 0, -0.1, 0, 1280)"/>
</svg>