<?xml version="1.0" encoding="utf-8"?>
<svg viewBox="554.5 1 359.3 244.94" width="359.3" height="244.94" xmlns="http://www.w3.org/2000/svg">
  <path d="M7257 12678 c-108 -191 -153 -279 -192 -378 -21 -52 -39 -97 -41 -99 -1 -2 -36 23 -76 54 -123 97 -388 239 -402 217 -2 -4 -8 -62 -11 -127 -7 -111 5 -276 22 -321 5 -14 3 -16 -13 -9 -126 53 -241 93 -496 171 -26 8 -23 -30 6 -91 30 -64 50 -81 106 -88 102 -14 598 -256 792 -388 33 -23 61 -39 62 -37 2 1 16 41 32 88 16 47 51 130 79 185 59 118 198 365 205 365 7 0 146 -247 205 -365 28 -55 63 -138 79 -185 16 -47 31 -87 32 -89 2 -2 32 14 66 37 248 159 739 362 878 362 32 0 68 48 94 124 24 71 22 88 -11 80 -146 -35 -459 -132 -547 -169 -17 -7 -18 -5 -12 19 16 63 24 229 17 328 -4 60 -10 110 -12 113 -3 2 -48 -15 -100 -39 -103 -46 -230 -125 -321 -199 -31 -26 -59 -43 -62 -39 -2 4 -20 50 -40 102 -49 125 -247 490 -266 490 -5 0 -37 -51 -73 -112z" style="fill: rgb(213, 172, 137);" transform="matrix(0.1, 0, 0, -0.1, 0, 1280)"/>
  <path d="M7250 11888 c-108 -190 -161 -300 -209 -433 -22 -60 -40 -105 -40 -99 -2 24 -95 115 -168 164 -42 28 -117 70 -167 94 -96 46 -236 99 -243 93 -2 -2 1 -17 7 -32 6 -15 9 -29 8 -30 -2 -2 -37 25 -80 59 -170 137 -445 236 -753 272 l-60 7 56 -60 c64 -70 116 -170 154 -298 59 -197 117 -314 218 -436 120 -144 333 -278 535 -335 82 -23 99 -32 141 -74 118 -117 287 -175 450 -152 62 9 65 8 138 -29 41 -22 85 -39 97 -39 13 0 59 18 103 40 79 39 80 39 144 29 160 -26 330 31 454 152 44 42 61 52 140 74 193 55 375 164 503 301 120 128 190 258 247 459 36 126 97 245 160 312 l53 55 -62 -6 c-313 -35 -625 -153 -783 -299 -43 -40 -58 -33 -33 14 15 27 5 25 -101 -16 -209 -81 -392 -196 -455 -287 l-32 -47 -38 112 c-21 62 -63 162 -94 222 -71 141 -193 355 -202 355 -4 0 -44 -64 -88 -142z" style="fill: rgb(213, 172, 137);" transform="matrix(0.1, 0, 0, -0.1, 0, 1280)"/>
  <path d="M5812 11054 c-60 -16 -103 -36 -121 -57 -16 -20 31 -59 118 -100 l64 -30 -29 -21 c-45 -33 -94 -77 -94 -86 0 -4 41 -8 92 -9 51 -1 96 -5 100 -9 4 -4 -13 -31 -38 -60 -24 -30 -44 -57 -44 -62 0 -4 37 -15 83 -24 111 -22 271 -21 370 3 42 10 77 15 77 12 0 -19 -82 -83 -125 -98 l-50 -17 45 -13 c78 -23 221 -36 320 -29 108 8 294 47 379 79 l56 22 -83 7 c-140 11 -246 58 -315 138 -32 37 -32 37 -127 43 -202 12 -378 106 -511 272 -49 62 -67 66 -167 39z" style="fill: rgb(213, 172, 137);" transform="matrix(0.1, 0, 0, -0.1, 0, 1280)"/>
  <path d="M8686 10984 c-44 -47 -107 -105 -140 -128 -104 -74 -239 -116 -368 -116 -58 0 -61 -1 -107 -49 -78 -80 -170 -118 -316 -130 l-80 -7 100 -32 c154 -50 252 -65 410 -66 103 0 161 4 220 18 71 17 77 20 55 28 -81 32 -98 43 -130 80 -25 31 -29 40 -15 34 99 -38 308 -48 437 -21 40 9 76 19 81 24 4 4 -15 33 -43 64 -60 65 -59 66 72 69 99 2 100 5 18 73 -25 21 -45 39 -45 41 0 2 27 17 60 33 33 17 75 43 94 59 l34 28 -29 21 c-39 28 -118 54 -179 59 l-50 4 -79 -86z" style="fill: rgb(213, 172, 137);" transform="matrix(0.1, 0, 0, -0.1, 0, 1280)"/>
  <path d="M7112 10576 c-28 -36 -45 -91 -38 -122 8 -32 76 -80 139 -99 68 -20 192 -19 257 2 31 10 71 34 98 58 46 42 46 42 34 81 -14 45 -48 104 -60 104 -5 0 -14 -12 -20 -26 -8 -16 -33 -35 -68 -51 -48 -22 -66 -25 -128 -21 -80 5 -143 32 -173 74 l-20 27 -21 -27z" style="fill: rgb(213, 172, 137);" transform="matrix(0.1, 0, 0, -0.1, 0, 1280)"/>
</svg>