<?xml version="1.0" encoding="utf-8"?>
<svg viewBox="509.595 695 450.705 267.824" width="450.705" height="267.824" xmlns="http://www.w3.org/2000/svg">
  <path d="M7307 5793 c-242 -400 -352 -716 -334 -952 6 -73 31 -178 46 -194 4 -4 22 32 40 80 18 49 55 132 83 187 58 116 187 344 198 351 18 11 237 -397 284 -530 16 -44 32 -84 36 -88 12 -13 40 81 49 166 22 193 -47 463 -181 717 -63 117 -178 320 -183 320 -2 0 -19 -26 -38 -57z" style="fill: rgb(229, 158, 37);" transform="matrix(0.1, 0, 0, -0.1, 0, 1280)"/>
  <path d="M6426 5522 c-2 -4 -7 -59 -11 -122 -7 -111 6 -285 25 -334 4 -12 49 -46 100 -76 112 -66 209 -154 297 -269 37 -47 69 -90 73 -94 4 -4 -2 25 -13 65 -16 59 -20 106 -21 248 -1 156 1 181 20 232 l22 56 -37 35 c-66 64 -194 148 -316 208 -124 61 -131 64 -139 51z" style="fill: rgb(229, 158, 37);" transform="matrix(0.1, 0, 0, -0.1, 0, 1280)"/>
  <path d="M8159 5495 c-113 -49 -263 -144 -367 -233 l-34 -28 22 -64 c32 -92 38 -255 15 -390 -9 -57 -21 -115 -26 -128 -16 -43 -4 -34 41 30 95 136 223 250 381 341 46 26 47 28 59 94 20 114 14 415 -8 412 -4 0 -41 -15 -83 -34z" style="fill: rgb(229, 158, 37);" transform="matrix(0.1, 0, 0, -0.1, 0, 1280)"/>
  <path d="M5810 5147 c0 -25 5 -70 11 -99 21 -100 38 -120 176 -212 71 -47 138 -93 151 -102 21 -16 22 -15 22 2 0 11 -6 47 -13 81 l-14 63 26 -7 c118 -28 376 -153 545 -263 104 -68 107 -69 78 -33 -43 55 -217 221 -287 274 -97 74 -223 153 -330 207 -110 54 -269 116 -327 127 l-38 7 0 -45z" style="fill: rgb(229, 158, 37);" transform="matrix(0.1, 0, 0, -0.1, 0, 1280)"/>
  <path d="M8765 5166 c-314 -102 -610 -291 -843 -541 -40 -43 -71 -80 -68 -82 2 -2 32 16 67 40 95 66 263 160 364 205 102 44 224 86 231 79 3 -2 0 -24 -5 -48 -6 -24 -11 -59 -11 -77 l0 -33 43 34 c23 19 88 65 144 101 57 36 109 76 117 89 26 39 45 105 52 182 8 87 12 84 -91 51z" style="fill: rgb(229, 158, 37);" transform="matrix(0.1, 0, 0, -0.1, 0, 1280)"/>
  <path d="M7289 4928 c-233 -399 -320 -639 -321 -884 -1 -109 14 -177 54 -261 51 -104 160 -200 275 -239 l51 -18 79 39 c197 97 296 285 280 530 -9 141 -78 376 -153 528 -41 83 -210 377 -216 377 -4 0 -26 -33 -49 -72z" style="fill: rgb(229, 158, 37);" transform="matrix(0.1, 0, 0, -0.1, 0, 1280)"/>
  <path d="M5320 4899 c63 -66 128 -195 166 -329 32 -117 99 -262 158 -344 51 -70 180 -198 247 -244 65 -44 212 -115 289 -141 69 -22 202 -52 208 -47 2 2 -12 20 -31 41 -120 131 -181 345 -176 617 l3 128 -30 31 c-49 52 -140 118 -227 164 -145 78 -403 152 -590 171 l-69 7 52 -54z" style="fill: rgb(229, 158, 37);" transform="matrix(0.1, 0, 0, -0.1, 0, 1280)"/>
  <path d="M9210 4930 c-282 -50 -523 -153 -666 -284 l-66 -61 -3 -175 c-3 -277 -52 -441 -168 -567 -22 -24 -38 -45 -36 -48 8 -7 172 33 244 60 338 127 564 372 659 715 36 130 105 267 166 330 l49 50 -37 -1 c-20 0 -84 -9 -142 -19z" style="fill: rgb(229, 158, 37);" transform="matrix(0.1, 0, 0, -0.1, 0, 1280)"/>
  <path d="M6280 4648 c5 -18 8 -125 7 -238 -1 -183 1 -215 21 -295 41 -163 135 -324 237 -405 102 -82 205 -113 355 -108 108 3 139 11 108 29 -30 17 -98 130 -118 198 -28 92 -40 236 -29 360 9 100 8 105 -15 145 -47 80 -154 165 -301 238 -72 36 -248 108 -264 108 -6 0 -6 -13 -1 -32z" style="fill: rgb(229, 158, 37);" transform="matrix(0.1, 0, 0, -0.1, 0, 1280)"/>
  <path d="M8260 4636 c-182 -74 -287 -134 -371 -213 -92 -86 -94 -93 -91 -288 5 -246 -28 -376 -123 -479 -19 -21 -33 -42 -29 -45 3 -3 55 -8 114 -9 191 -6 321 51 441 195 56 66 124 211 151 318 20 81 22 111 20 303 -1 116 3 223 8 237 13 34 5 33 -120 -19z" style="fill: rgb(229, 158, 37);" transform="matrix(0.1, 0, 0, -0.1, 0, 1280)"/>
  <path d="M5230 4403 c-49 -8 -119 -34 -131 -49 -25 -31 108 -137 240 -190 56 -23 61 -23 101 -9 23 8 58 15 76 15 19 0 34 3 34 6 0 3 -23 31 -50 61 -28 30 -62 81 -78 114 l-27 59 -70 -1 c-38 -1 -81 -4 -95 -6z" style="fill: rgb(229, 158, 37);" transform="matrix(0.1, 0, 0, -0.1, 0, 1280)"/>
  <path d="M9275 4383 c-10 -41 -51 -106 -100 -159 -25 -26 -45 -49 -45 -51 0 -2 17 -3 38 -4 20 0 55 -6 77 -13 36 -11 47 -10 102 10 78 29 156 79 212 137 l44 45 -40 20 c-48 25 -137 42 -219 42 -59 0 -62 -1 -69 -27z" style="fill: rgb(229, 158, 37);" transform="matrix(0.1, 0, 0, -0.1, 0, 1280)"/>
  <path d="M5476 4109 c-56 -13 -155 -63 -200 -101 l-39 -32 69 -13 c38 -7 108 -25 157 -39 l87 -27 78 35 c42 20 85 39 96 42 16 5 13 11 -23 36 -22 16 -53 48 -67 70 -25 37 -30 40 -73 39 -25 -1 -63 -5 -85 -10z" style="fill: rgb(229, 158, 37);" transform="matrix(0.1, 0, 0, -0.1, 0, 1280)"/>
  <path d="M9065 4101 c-7 -22 -99 -111 -115 -111 -20 0 -1 -18 27 -25 16 -3 57 -20 92 -37 l63 -30 77 23 c42 12 114 30 160 39 l84 16 -49 36 c-94 68 -199 108 -285 108 -38 0 -49 -4 -54 -19z" style="fill: rgb(229, 158, 37);" transform="matrix(0.1, 0, 0, -0.1, 0, 1280)"/>
  <path d="M5712 3911 c-79 -28 -251 -132 -259 -157 -5 -16 146 -69 269 -95 180 -37 389 -18 528 48 l55 26 -73 13 c-149 26 -282 84 -384 165 -20 16 -40 29 -45 29 -4 0 -45 -13 -91 -29z" style="fill: rgb(229, 158, 37);" transform="matrix(0.1, 0, 0, -0.1, 0, 1280)"/>
  <path d="M8820 3898 c-103 -76 -276 -143 -415 -161 -29 -3 -27 -4 27 -30 109 -51 170 -62 338 -62 168 1 247 15 400 74 l73 28 -53 42 c-67 53 -122 85 -196 115 -102 41 -112 41 -174 -6z" style="fill: rgb(229, 158, 37);" transform="matrix(0.1, 0, 0, -0.1, 0, 1280)"/>
  <path d="M6360 3653 c-34 -17 -88 -60 -141 -113 -73 -74 -94 -89 -145 -105 l-59 -19 45 -13 c85 -25 175 -35 310 -35 165 0 319 26 480 79 l115 38 -98 7 c-176 13 -299 60 -377 144 -22 24 -48 44 -58 44 -10 0 -43 -12 -72 -27z" style="fill: rgb(229, 158, 37);" transform="matrix(0.1, 0, 0, -0.1, 0, 1280)"/>
  <path d="M8211 3651 c-58 -81 -221 -148 -383 -158 -110 -7 -109 -10 4 -47 259 -84 538 -103 769 -50 l73 17 -63 22 c-34 13 -64 25 -66 26 -2 2 -42 41 -88 86 -81 78 -165 133 -206 133 -11 0 -29 -13 -40 -29z" style="fill: rgb(229, 158, 37);" transform="matrix(0.1, 0, 0, -0.1, 0, 1280)"/>
  <path d="M7046 3487 c-26 -35 -49 -83 -60 -129 -5 -23 0 -35 31 -69 122 -135 419 -158 590 -45 59 40 86 80 77 119 -13 60 -75 163 -87 146 -2 -2 -13 -18 -25 -36 -13 -18 -47 -44 -80 -60 -48 -24 -69 -28 -142 -28 -129 0 -209 32 -256 103 l-22 33 -26 -34z" style="fill: rgb(229, 158, 37);" transform="matrix(0.1, 0, 0, -0.1, 0, 1280)"/>
</svg>