<?xml version="1.0" encoding="utf-8"?>
<svg viewBox="526.629 1009.902 415.471 269.498" width="415.471" height="269.498" xmlns="http://www.w3.org/2000/svg">
  <path d="M7332 2698 c-33 -41 -234 -421 -271 -513 -24 -61 -45 -111 -46 -113 -2 -2 -44 28 -94 67 -106 81 -221 149 -332 196 -72 31 -80 33 -87 17 -12 -28 -7 -383 5 -432 7 -24 11 -46 9 -47 -2 -2 -36 10 -76 27 -69 28 -405 140 -461 154 -22 5 -28 2 -33 -17 -17 -63 6 -178 42 -210 9 -8 54 -31 99 -50 46 -19 103 -49 128 -66 25 -17 48 -31 50 -31 3 0 -6 25 -20 56 l-24 55 22 -7 c139 -42 518 -222 671 -318 49 -31 90 -55 91 -54 1 2 15 41 31 88 16 47 56 139 89 205 70 141 207 385 216 385 8 0 171 -287 225 -397 25 -50 61 -134 79 -185 18 -51 38 -92 43 -91 5 1 52 28 103 59 172 105 614 304 675 304 10 0 5 -19 -21 -70 -19 -38 -33 -70 -30 -70 3 0 26 15 52 34 27 19 90 55 141 81 79 39 98 53 123 93 30 47 69 157 69 193 0 16 -5 18 -27 13 -90 -22 -413 -118 -498 -148 -55 -20 -101 -36 -101 -36 -1 0 2 17 7 38 15 59 22 259 15 364 l-8 96 -37 -12 c-114 -41 -288 -143 -414 -243 l-67 -54 -10 26 c-6 15 -10 29 -10 32 0 20 -93 217 -161 338 -126 229 -145 257 -157 243z" style="fill: rgb(187, 146, 217);" transform="matrix(0.1, 0, 0, -0.1, 0, 1280)"/>
  <path d="M7302 1783 c-184 -318 -246 -455 -298 -658 -23 -90 -28 -132 -28 -230 -1 -187 41 -294 154 -398 63 -59 173 -119 215 -119 42 -1 152 60 214 117 107 100 155 225 154 400 -2 233 -80 456 -283 813 -44 78 -83 142 -85 142 -2 0 -22 -30 -43 -67z" style="fill: rgb(187, 146, 217);" transform="matrix(0.1, 0, 0, -0.1, 0, 1280)"/>
  <path d="M5324 1746 c66 -67 132 -199 175 -349 88 -304 282 -532 565 -663 80 -37 214 -78 291 -90 l50 -7 -48 53 c-57 64 -110 168 -138 275 -17 63 -22 119 -26 270 l-5 190 -41 43 c-113 118 -332 226 -572 282 -64 15 -273 50 -298 50 -3 0 18 -24 47 -54z" style="fill: rgb(187, 146, 217);" transform="matrix(0.1, 0, 0, -0.1, 0, 1280)"/>
  <path d="M9305 1789 c-322 -42 -643 -175 -790 -329 l-30 -31 -1 -162 c-2 -181 -19 -289 -64 -404 -28 -72 -106 -193 -138 -213 -35 -22 92 1 198 36 360 120 596 363 695 714 39 140 112 284 176 348 29 28 46 51 38 51 -8 -1 -45 -6 -84 -10z" style="fill: rgb(187, 146, 217);" transform="matrix(0.1, 0, 0, -0.1, 0, 1280)"/>
  <path d="M6281 1508 c10 -17 13 -87 14 -258 1 -226 2 -238 29 -325 71 -232 204 -392 382 -457 47 -17 83 -21 174 -22 63 -1 123 2 134 7 16 6 14 12 -24 53 -99 107 -148 323 -122 539 8 69 7 86 -8 120 -45 101 -208 216 -435 308 -60 25 -121 48 -133 52 -22 6 -23 6 -11 -17z" style="fill: rgb(187, 146, 217);" transform="matrix(0.1, 0, 0, -0.1, 0, 1280)"/>
  <path d="M8280 1486 c-242 -99 -391 -196 -452 -294 -21 -34 -22 -48 -23 -237 -1 -180 -3 -207 -24 -270 -26 -80 -59 -140 -103 -191 -17 -19 -28 -37 -26 -40 3 -2 41 -7 85 -11 266 -20 477 124 583 398 51 132 60 198 60 429 0 115 4 220 10 234 5 14 6 26 2 26 -4 -1 -54 -20 -112 -44z" style="fill: rgb(187, 146, 217);" transform="matrix(0.1, 0, 0, -0.1, 0, 1280)"/>
  <path d="M5525 953 c-97 -14 -225 -62 -254 -97 -10 -12 -6 -20 31 -46 59 -43 116 -75 161 -91 20 -7 37 -15 37 -19 0 -3 -15 -15 -33 -27 -17 -12 -51 -42 -75 -66 l-43 -44 127 -7 c70 -3 130 -8 132 -11 3 -2 -25 -37 -62 -77 -36 -39 -63 -75 -58 -79 4 -4 43 -15 87 -26 62 -14 119 -18 250 -18 162 1 226 9 311 42 23 9 9 -16 -39 -66 -27 -28 -56 -46 -105 -62 l-67 -23 44 -13 c187 -55 495 -56 768 -4 l93 18 39 -47 c54 -64 138 -118 241 -154 79 -28 95 -30 215 -30 113 1 141 4 210 27 106 35 196 90 256 155 l48 53 103 -20 c250 -47 515 -52 707 -12 51 11 95 22 97 24 3 2 -24 14 -58 27 -47 17 -75 35 -111 73 -26 27 -45 52 -43 54 3 3 26 -2 53 -11 153 -49 451 -45 601 9 16 6 -3 35 -73 112 l-45 51 107 7 c178 10 166 3 108 59 -27 26 -62 55 -77 64 -30 18 -36 32 -14 32 22 0 148 67 189 101 l38 31 -22 24 c-27 29 -110 61 -207 80 -41 8 -77 14 -82 14 -4 0 -19 -17 -33 -38 -37 -57 -142 -161 -228 -225 -132 -99 -269 -146 -445 -153 l-111 -4 -44 -41 c-129 -120 -362 -203 -552 -198 -56 2 -71 -1 -90 -18 -60 -55 -163 -79 -310 -70 -103 6 -215 33 -252 61 -12 9 -42 15 -72 16 -205 1 -401 74 -530 198 l-55 53 -102 3 c-165 4 -325 58 -445 148 -76 57 -197 174 -233 226 -16 23 -34 41 -41 41 -7 -1 -25 -4 -42 -6z" style="fill: rgb(187, 146, 217);" transform="matrix(0.1, 0, 0, -0.1, 0, 1280)"/>
</svg>