<?xml version="1.0" encoding="utf-8"?>
<svg viewBox="1.207 692 440.293 253" width="440.293" height="253" xmlns="http://www.w3.org/2000/svg">
  <path d="M2148 5782 c-113 -193 -196 -354 -238 -459 -121 -306 -141 -572 -57 -756 l23 -52 34 100 c48 140 277 585 301 585 7 0 74 -114 161 -275 54 -99 120 -251 153 -354 l18 -55 19 38 c102 198 64 531 -98 876 -50 105 -244 450 -253 450 -3 0 -32 -44 -63 -98z" style="fill: rgb(97, 117, 246);" transform="matrix(0.1, 0, 0, -0.1, 0, 1280)"/>
  <path d="M3137 5551 c-112 -50 -210 -108 -322 -191 -133 -100 -131 -97 -106 -164 50 -135 49 -346 -3 -541 -13 -49 -23 -92 -21 -94 8 -7 27 14 97 107 124 165 180 214 410 358 30 19 38 32 48 76 26 121 24 489 -3 487 -7 0 -51 -17 -100 -38z" style="fill: rgb(97, 117, 246);" transform="matrix(0.1, 0, 0, -0.1, 0, 1280)"/>
  <path d="M1185 5483 c-9 -118 -1 -330 15 -401 11 -51 14 -53 83 -93 164 -95 255 -177 377 -342 35 -48 70 -87 77 -87 16 0 16 1 -6 86 -49 183 -51 386 -6 517 l25 72 -57 53 c-103 95 -294 211 -450 271 l-51 20 -7 -96z" style="fill: rgb(97, 117, 246);" transform="matrix(0.1, 0, 0, -0.1, 0, 1280)"/>
  <path d="M553 5164 c-17 -45 28 -257 65 -299 9 -11 71 -56 137 -99 66 -43 142 -97 169 -120 l49 -41 -7 68 c-4 37 -9 81 -13 97 l-6 30 89 -31 c155 -54 411 -190 555 -295 39 -29 48 -32 58 -20 23 28 -174 230 -361 371 -204 154 -422 263 -677 339 -46 13 -53 14 -58 0z" style="fill: rgb(97, 117, 246);" transform="matrix(0.1, 0, 0, -0.1, 0, 1280)"/>
  <path d="M3695 5129 c-294 -97 -584 -278 -815 -509 -110 -110 -147 -157 -132 -172 8 -8 45 11 135 70 68 45 171 106 230 136 102 52 303 136 327 136 7 0 9 -10 6 -27 -12 -53 -22 -163 -16 -163 3 0 19 14 36 31 16 17 92 73 169 124 152 101 173 125 193 220 26 120 25 196 -2 195 -6 -1 -65 -19 -131 -41z" style="fill: rgb(97, 117, 246);" transform="matrix(0.1, 0, 0, -0.1, 0, 1280)"/>
  <path d="M2122 4713 c-155 -273 -205 -386 -253 -573 -94 -360 -7 -620 250 -748 46 -23 90 -42 99 -42 35 0 165 74 222 127 95 88 140 178 160 320 24 178 -37 440 -161 687 -59 117 -212 386 -221 386 -4 0 -47 -71 -96 -157z" style="fill: rgb(97, 117, 246);" transform="matrix(0.1, 0, 0, -0.1, 0, 1280)"/>
  <path d="M30 4793 c104 -69 191 -213 250 -418 92 -319 309 -573 611 -714 88 -41 244 -91 286 -91 22 0 19 5 -30 53 -65 63 -117 166 -143 282 -20 88 -26 311 -11 444 l8 73 -53 53 c-142 137 -366 241 -631 294 -102 21 -254 41 -292 40 -18 0 -18 -1 5 -16z" style="fill: rgb(97, 117, 246);" transform="matrix(0.1, 0, 0, -0.1, 0, 1280)"/>
  <path d="M4245 4794 c-292 -39 -564 -144 -729 -280 -96 -79 -98 -85 -85 -201 7 -55 9 -153 6 -227 -9 -216 -60 -360 -162 -463 -48 -47 -51 -53 -30 -53 42 0 199 51 292 95 311 147 520 400 617 745 49 177 135 317 236 383 l25 16 -35 -1 c-19 0 -80 -6 -135 -14z" style="fill: rgb(97, 117, 246);" transform="matrix(0.1, 0, 0, -0.1, 0, 1280)"/>
  <path d="M1097 4607 c-3 -8 -1 -20 4 -28 5 -8 9 -120 9 -250 0 -164 5 -263 15 -322 42 -242 165 -435 332 -525 108 -57 256 -77 386 -51 l57 12 -49 48 c-53 52 -92 124 -116 216 -21 76 -29 248 -18 342 9 71 8 77 -19 132 -55 109 -255 269 -488 388 -54 28 -100 51 -103 51 -3 0 -7 -6 -10 -13z" style="fill: rgb(97, 117, 246);" transform="matrix(0.1, 0, 0, -0.1, 0, 1280)"/>
  <path d="M3200 4564 c-157 -83 -296 -179 -381 -264 -115 -113 -113 -109 -114 -340 0 -133 -5 -211 -14 -245 -25 -90 -68 -173 -115 -220 -25 -25 -46 -47 -46 -49 0 -10 109 -26 178 -26 248 0 445 152 546 421 45 121 58 222 60 488 1 136 4 255 7 265 2 10 0 20 -6 22 -5 2 -57 -21 -115 -52z" style="fill: rgb(97, 117, 246);" transform="matrix(0.1, 0, 0, -0.1, 0, 1280)"/>
</svg>