<?xml version="1.0" encoding="utf-8"?>
<svg version="1.0" width="1280.000000pt" height="1049.000000pt" viewBox="0 0 1280.000000 1049.000000" preserveAspectRatio="xMidYMid meet" xmlns="http://www.w3.org/2000/svg">
  <defs>
    <radialGradient gradientUnits="userSpaceOnUse" cx="901.815" cy="-1080.788" r="131.201" id="gradient-0" spreadMethod="pad" gradientTransform="matrix(2.05823, -2.202216, 0.651828, 0.609213, -270.616129, 2946.8454)">
      <stop offset="0" style="stop-color: rgb(255, 255, 255); stop-opacity: 0;"/>
      <stop offset="1" style="stop-opacity: 0.18;"/>
    </radialGradient>
  </defs>
  <g transform="translate(0.000000,1049.000000) scale(0.100000,-0.100000)" fill="yellow" stroke="none">
    <path d="M 10683 5273 C 11062.865 5678.189 4629.449 6739.533 4279 5520 C 4260.944 5457.167 4287 5403 4282 5398 C 4277 5393 4254 5419 4228 5458 C 4053 5721 3764 5998 3499 6158 C 3329 6259 3133 6346 2975 6390 C 2931 6402 2890 6417 2884 6423 C 2878 6430 2843 6505 2806 6590 C 2768 6675 2701 6817 2656 6905 C 2445 7315 2333 7437 2110 7497 C 2008 7525 1749 7522 1605 7492 C 1469 7463 1281 7410 1263 7396 C 1260 7394 1329 7197 1334 7193 C 1335 7192 1378 7204 1430 7221 C 1611 7279 1700 7294 1880 7294 C 2030 7294 2050 7292 2104 7271 C 2184 7239 2232 7193 2312 7071 C 2398 6938 2632 6477 2618 6466 C 2617 6464 2563 6466 2500 6471 C 2283 6485 1997 6454 1794 6394 C 1657 6353 1670 6351 1625 6422 C 1560 6524 1433 6698 1344 6805 C 1124 7074 995 7142 705 7143 C 526 7143 392 7121 168 7053 C 119 7039 80 7022 80 7016 C 80 6996 141 6820 148 6820 C 152 6820 189 6831 230 6844 C 430 6908 668 6940 804 6921 C 927 6904 987 6871 1083 6771 C 1198 6649 1470 6287 1456 6273 C 1454 6271 1403 6241 1343 6208 C 915 5970 578 5611 355 5155 C 269 4980 214 4831 171 4665 C -20 3918 107 3138 521 2520 C 784 2126 1163 1812 1576 1647 C 1961 1492 2391 1451 2789 1531 L 2884 1549 L 3024 1412 C 3639 811 4589 359 5685 146 C 6212 44 6611 7 7195 6 C 7621 5 7754 12 8108 51 C 10003 259 11536 1129 11996 2257 L 12039 2363 L 12420 2503 C 12707 2609 12800 2647 12798 2658 C 12796 2666 12649 2774 12470 2897 L 12145 3120 L 12137 3173 C 12081 3554 11990 3801 11795 4100 C 11541 4490 11103 4881 10613 5157 L 10561 5186 L 10683 5273 Z"/>
  </g>
  <path style="stroke: rgb(0, 0, 0); fill: rgb(43, 35, 4);" d="M 425.737 515.87 C 498.768 812.431 323.36 906.551 287.66 893.663 C 273.786 901.987 402.575 992.708 414.23 985.715 C 665.282 921.063 603.304 453.966 569.567 481.351 C 571.447 464.428 428.899 487.408 425.737 515.87 Z"/>
  <path style="stroke: rgb(0, 0, 0); fill: rgb(43, 35, 4);" d="M 702.603 475.413 C 775.634 771.974 579.131 1034.854 543.431 1021.966 C 529.087 1030.603 679.629 1062.714 704.52 1046.897 C 955.572 982.245 893.594 451.863 859.857 479.248 C 861.737 462.325 705.765 446.951 702.603 475.413 Z"/>
  <path style="stroke: rgb(0, 0, 0); fill: rgb(43, 35, 4);" d="M 489.022 625.181 C 562.053 921.742 426.918 1153.939 391.218 1141.051 C 377.344 1150.602 492.708 1127.272 504.363 1112.285 C 755.415 1047.633 655.083 653.41 621.346 680.795 C 655.517 671.945 496.606 597.824 489.022 625.181 Z" transform="matrix(1, 0, 0, 1, 487.817543, -110.774459)"/>
  <ellipse style="fill: rgb(249, 255, 225);" cx="103.557" cy="587.465" rx="70.956" ry="47.943"/>
  <ellipse style="fill: rgb(249, 255, 225);" cx="268.483" cy="587.466" rx="70.956" ry="47.943"/>
  <ellipse style="" cx="270.4" cy="589.385" rx="40.272" ry="23.013"/>
  <ellipse style="" cx="103.557" cy="587.466" rx="40.272" ry="23.013"/>
  <g transform="matrix(0.1, 0, 0, -0.1, 0.539269, 1049.331299)" fill="yellow" stroke="none">
    <path d="M 9355 10484 C 9339 10482 9280 10475 9225 10469 C 8671 10406 7963 10126 7278 9698 C 6109 8967 5048 7827 4564 6780 C 4348 6313 4224.822 6198.192 4259.822 5865.192 C 4266.822 5800.192 4324.896 5078.899 4282 5378.823 C 4239.104 5678.747 6639.612 5877.433 6989.536 5803.192 C 7257.64 5746.31 7744.737 6199.36 9769.197 5425.483 C 10220.712 5425.483 10662.154 5186 10541.823 5186 L 10932.305 5426.418 C 11227.305 5636.418 11196 5667 11426 5903 C 11604 6084 11724 6230 11838 6400 C 11993 6632 12110 6908 12146 7125 C 12167 7256 12160 7461 12130 7575 C 12013 8024 11596 8340 10947 8470 C 10875 8485 10641 8520 10617 8520 C 10615 8520 10631 8571 10651 8634 C 10698 8776 10737 8950 10757 9100 C 10776 9241 10769 9507 10745 9620 C 10635 10122 10283 10417 9718 10479 C 9629 10489 9427 10492 9355 10484 Z" style="fill: rgb(230, 255, 249);"/>
  </g>
  <path style="stroke: rgb(0, 0, 0); fill: url(#gradient-0); paint-order: fill; fill-rule: nonzero; fill-opacity: 0.33;" d="M 1072.014 121.883 C 1109.398 183.329 836.053 494.456 813.119 461.322"/>
</svg>