<svg xmlns="http://www.w3.org/2000/svg" xmlns:xlink="http://www.w3.org/1999/xlink" version="1.1" x="0px" y="0px" viewBox="0 0 100 125" enable-background="new 0 0 100 100" xml:space="preserve">
  <g>
    <rect x="-192" width="185" height="99" />
    <rect y="-36" width="100" height="30" />
    <line fill="#FFFFFF" stroke="#FFFFFF" stroke-miterlimit="10" x1="8" y1="-14.5" x2="18" y2="-14.5" />
    <line fill="#FFFFFF" stroke="#FFFFFF" stroke-miterlimit="10" x1="-179" y1="16.5" x2="-162" y2="16.5" />
    <g>
      <g>
        <g>
          <rect x="-170.802" y="31.318" fill="#FFFFFF" width="8.721" height="8.642" />
          <path fill="#FFFFFF" d="M-164.455,42.312h4.747v-4.703h-4.747V42.312z M-159.266,42.749h-5.63V37.17h5.63V42.749      L-159.266,42.749z M-166.221,44.062h8.279v-8.203h-8.279V44.062L-166.221,44.062z M-157.5,44.5h-9.163v-9.079h9.163V44.5      L-157.5,44.5z" />
          <polygon fill="#FFFFFF" points="-166.149,44.133 -166.292,43.991 -158.013,35.787 -157.871,35.929     " />
        </g>
      </g>
    </g>
    <rect x="-179" y="58" fill="none" width="35" height="32.5" />
    <rect x="-136.5" y="58" fill="none" width="35" height="32.5" />
    <rect x="-94" y="58" fill="none" width="35" height="32.5" />
    <rect x="-50" y="58" fill="none" width="35" height="32.5" />
    <rect x="-126.514" y="34.815" fill="#FFFFFF" width="10.261" height="10.185" />
    <rect x="-126.477" y="31.766" fill="#FFFFFF" width="0.522" height="2.337" />
    <rect x="-116.812" y="31.766" fill="#FFFFFF" width="0.523" height="2.337" />
    <rect x="-127" y="32.337" fill="#FFFFFF" width="11.233" height="0.572" />
    <g>
      <rect x="-83.805" y="33.844" fill="#FFFFFF" width="10.305" height="10.156" />
      <rect x="-76.809" y="28.707" fill="#FFFFFF" width="3.308" height="3.261" />
    </g>
    <rect x="-178.5" y="22.5" fill="#FFFFFF" stroke="#FFFFFF" stroke-miterlimit="10" width="30" height="30" />
    <rect x="-136.5" y="22.5" fill="#FFFFFF" stroke="#FFFFFF" stroke-miterlimit="10" width="30" height="30" />
    <rect x="-93.5" y="22.5" fill="#FFFFFF" stroke="#FFFFFF" stroke-miterlimit="10" width="30" height="30" />
    <rect x="-49.5" y="22.5" fill="#FFFFFF" stroke="#FFFFFF" stroke-miterlimit="10" width="30" height="30" />
  </g>
  <g>
    <path d="M66.006,82.742L40.377,52l25.629-30.742c1.133-1.361,0.947-3.379-0.41-4.514s-3.381-0.951-4.514,0.408L33.744,49.947   C33.246,50.541,33,51.271,33,52c0,0.73,0.246,1.459,0.744,2.053l27.338,32.795c1.133,1.359,3.156,1.543,4.514,0.408   C66.957,86.119,67.141,84.105,66.006,82.742z" />
  </g>
</svg>
